<?xml version="1.0" encoding="UTF-8" standalone="no"?>
<!DOCTYPE svg PUBLIC "-//W3C//DTD SVG 1.1//EN"
 "http://www.w3.org/Graphics/SVG/1.1/DTD/svg11.dtd">
<!-- Generated by graphviz version 12.1.2 (20240928.0832)
 -->
<!-- Title: goose_db_version Pages: 1 -->
<svg width="370pt" height="259pt"
 viewBox="0.00 0.00 369.87 259.20" xmlns="http://www.w3.org/2000/svg" xmlns:xlink="http://www.w3.org/1999/xlink">
<g id="graph0" class="graph" transform="scale(1 1) rotate(0) translate(4 255.2)">
<title>goose_db_version</title>
<polygon fill="white" stroke="none" points="-4,4 -4,-255.2 365.87,-255.2 365.87,4 -4,4"/>
<!-- goose_db_version -->
<g id="node1" class="node">
<title>goose_db_version</title>
<polygon fill="#efefef" stroke="none" points="46.2,-169.4 46.2,-205 315.67,-205 315.67,-169.4 46.2,-169.4"/>
<polygon fill="none" stroke="black" points="46.2,-169.4 46.2,-205 315.67,-205 315.67,-169.4 46.2,-169.4"/>
<text text-anchor="start" x="53.2" y="-182.8" font-family="Arial Bold" font-size="18.00">goose_db_version</text>
<text text-anchor="start" x="184.18" y="-182.8" font-family="Arial" font-size="14.00">    </text>
<text text-anchor="start" x="215.3" y="-182.8" font-family="Arial" font-size="14.00" fill="#666666">[BASE TABLE]</text>
<polygon fill="none" stroke="black" points="46.2,-138.6 46.2,-169.4 315.67,-169.4 315.67,-138.6 46.2,-138.6"/>
<text text-anchor="start" x="53.2" y="-150.8" font-family="Arial" font-size="14.00">id </text>
<text text-anchor="start" x="67.99" y="-150.8" font-family="Arial" font-size="14.00" fill="#666666">[bigint unsigned]</text>
<polygon fill="none" stroke="black" points="46.2,-107.8 46.2,-138.6 315.67,-138.6 315.67,-107.8 46.2,-107.8"/>
<text text-anchor="start" x="53.2" y="-120" font-family="Arial" font-size="14.00">version_id </text>
<text text-anchor="start" x="120.9" y="-120" font-family="Arial" font-size="14.00" fill="#666666">[bigint]</text>
<polygon fill="none" stroke="black" points="46.2,-77 46.2,-107.8 315.67,-107.8 315.67,-77 46.2,-77"/>
<text text-anchor="start" x="53.2" y="-89.2" font-family="Arial" font-size="14.00">is_applied </text>
<text text-anchor="start" x="120.14" y="-89.2" font-family="Arial" font-size="14.00" fill="#666666">[tinyint(1)]</text>
<polygon fill="none" stroke="black" points="46.2,-46.2 46.2,-77 315.67,-77 315.67,-46.2 46.2,-46.2"/>
<text text-anchor="start" x="53.2" y="-58.4" font-family="Arial" font-size="14.00">tstamp </text>
<text text-anchor="start" x="99.1" y="-58.4" font-family="Arial" font-size="14.00" fill="#666666">[timestamp]</text>
<polygon fill="none" stroke="black" stroke-width="3" points="44.7,-44.7 44.7,-206.5 317.17,-206.5 317.17,-44.7 44.7,-44.7"/>
</g>
</g>
</svg>
