<?xml version="1.0" encoding="UTF-8" standalone="no"?>
<!DOCTYPE svg PUBLIC "-//W3C//DTD SVG 1.1//EN"
 "http://www.w3.org/Graphics/SVG/1.1/DTD/svg11.dtd">
<!-- Generated by graphviz version 12.1.2 (20240928.0832)
 -->
<!-- Title: plats Pages: 1 -->
<svg width="528pt" height="725pt"
 viewBox="0.00 0.00 528.27 725.20" xmlns="http://www.w3.org/2000/svg" xmlns:xlink="http://www.w3.org/1999/xlink">
<g id="graph0" class="graph" transform="scale(1 1) rotate(0) translate(4 721.2)">
<title>plats</title>
<polygon fill="white" stroke="none" points="-4,4 -4,-721.2 524.27,-721.2 524.27,4 -4,4"/>
<!-- plats -->
<g id="node1" class="node">
<title>plats</title>
<polygon fill="#efefef" stroke="none" points="64.18,-635.4 64.18,-671 254.1,-671 254.1,-635.4 64.18,-635.4"/>
<polygon fill="none" stroke="black" points="64.18,-635.4 64.18,-671 254.1,-671 254.1,-635.4 64.18,-635.4"/>
<text text-anchor="start" x="79.9" y="-648.8" font-family="Arial Bold" font-size="18.00">plats</text>
<text text-anchor="start" x="113.89" y="-648.8" font-family="Arial" font-size="14.00">    </text>
<text text-anchor="start" x="145.01" y="-648.8" font-family="Arial" font-size="14.00" fill="#666666">[BASE TABLE]</text>
<polygon fill="none" stroke="black" points="64.18,-604.6 64.18,-635.4 254.1,-635.4 254.1,-604.6 64.18,-604.6"/>
<text text-anchor="start" x="71.18" y="-616.8" font-family="Arial" font-size="14.00">plat_id </text>
<text text-anchor="start" x="116.32" y="-616.8" font-family="Arial" font-size="14.00" fill="#666666">[char(26)]</text>
<polygon fill="none" stroke="black" points="64.18,-573.8 64.18,-604.6 254.1,-604.6 254.1,-573.8 64.18,-573.8"/>
<text text-anchor="start" x="71.18" y="-586" font-family="Arial" font-size="14.00">user_id </text>
<text text-anchor="start" x="120.99" y="-586" font-family="Arial" font-size="14.00" fill="#666666">[char(26)]</text>
<polygon fill="none" stroke="black" points="64.18,-543 64.18,-573.8 254.1,-573.8 254.1,-543 64.18,-543"/>
<text text-anchor="start" x="71.18" y="-555.2" font-family="Arial" font-size="14.00">content </text>
<text text-anchor="start" x="120.99" y="-555.2" font-family="Arial" font-size="14.00" fill="#666666">[varchar(255)]</text>
<polygon fill="none" stroke="black" points="64.18,-512.2 64.18,-543 254.1,-543 254.1,-512.2 64.18,-512.2"/>
<text text-anchor="start" x="71.18" y="-524.4" font-family="Arial" font-size="14.00">created_at </text>
<text text-anchor="start" x="141.23" y="-524.4" font-family="Arial" font-size="14.00" fill="#666666">[bigint unsigned]</text>
<polygon fill="none" stroke="black" points="64.18,-481.4 64.18,-512.2 254.1,-512.2 254.1,-481.4 64.18,-481.4"/>
<text text-anchor="start" x="71.18" y="-493.6" font-family="Arial" font-size="14.00">updated_at </text>
<text text-anchor="start" x="145.14" y="-493.6" font-family="Arial" font-size="14.00" fill="#666666">[bigint unsigned]</text>
<polygon fill="none" stroke="black" stroke-width="3" points="62.68,-479.9 62.68,-672.5 255.6,-672.5 255.6,-479.9 62.68,-479.9"/>
</g>
<!-- users -->
<g id="node2" class="node">
<title>users</title>
<polygon fill="#efefef" stroke="none" points="43.2,-320.4 43.2,-356 275.08,-356 275.08,-320.4 43.2,-320.4"/>
<polygon fill="none" stroke="black" points="43.2,-320.4 43.2,-356 275.08,-356 275.08,-320.4 43.2,-320.4"/>
<text text-anchor="start" x="78.4" y="-333.8" font-family="Arial Bold" font-size="18.00">users</text>
<text text-anchor="start" x="115.39" y="-333.8" font-family="Arial" font-size="14.00">    </text>
<text text-anchor="start" x="146.51" y="-333.8" font-family="Arial" font-size="14.00" fill="#666666">[BASE TABLE]</text>
<polygon fill="none" stroke="black" points="43.2,-289.6 43.2,-320.4 275.08,-320.4 275.08,-289.6 43.2,-289.6"/>
<text text-anchor="start" x="50.2" y="-301.8" font-family="Arial" font-size="14.00">user_id </text>
<text text-anchor="start" x="100.01" y="-301.8" font-family="Arial" font-size="14.00" fill="#666666">[char(26)]</text>
<polygon fill="none" stroke="black" points="43.2,-258.8 43.2,-289.6 275.08,-289.6 275.08,-258.8 43.2,-258.8"/>
<text text-anchor="start" x="50.2" y="-271" font-family="Arial" font-size="14.00">preferred_user_id </text>
<text text-anchor="start" x="164.6" y="-271" font-family="Arial" font-size="14.00" fill="#666666">[varchar(64)]</text>
<polygon fill="none" stroke="black" points="43.2,-228 43.2,-258.8 275.08,-258.8 275.08,-228 43.2,-228"/>
<text text-anchor="start" x="50.2" y="-240.2" font-family="Arial" font-size="14.00">preferred_user_name </text>
<text text-anchor="start" x="188.72" y="-240.2" font-family="Arial" font-size="14.00" fill="#666666">[varchar(64)]</text>
<polygon fill="none" stroke="black" points="43.2,-197.2 43.2,-228 275.08,-228 275.08,-197.2 43.2,-197.2"/>
<text text-anchor="start" x="50.2" y="-209.4" font-family="Arial" font-size="14.00">registered_at </text>
<text text-anchor="start" x="135.81" y="-209.4" font-family="Arial" font-size="14.00" fill="#666666">[bigint unsigned]</text>
<polygon fill="none" stroke="black" points="43.2,-166.4 43.2,-197.2 275.08,-197.2 275.08,-166.4 43.2,-166.4"/>
<text text-anchor="start" x="50.2" y="-178.6" font-family="Arial" font-size="14.00">is_public </text>
<text text-anchor="start" x="108.57" y="-178.6" font-family="Arial" font-size="14.00" fill="#666666">[tinyint(1)]</text>
<polygon fill="none" stroke="black" points="43.2,-135.6 43.2,-166.4 275.08,-166.4 275.08,-135.6 43.2,-135.6"/>
<text text-anchor="start" x="50.2" y="-147.8" font-family="Arial" font-size="14.00">mail_address </text>
<text text-anchor="start" x="137.35" y="-147.8" font-family="Arial" font-size="14.00" fill="#666666">[varchar(256)]</text>
<polygon fill="none" stroke="black" points="43.2,-104.8 43.2,-135.6 275.08,-135.6 275.08,-104.8 43.2,-104.8"/>
<text text-anchor="start" x="50.2" y="-117" font-family="Arial" font-size="14.00">icon_image_id </text>
<text text-anchor="start" x="144.37" y="-117" font-family="Arial" font-size="14.00" fill="#666666">[char(26)]</text>
<polygon fill="none" stroke="black" points="43.2,-74 43.2,-104.8 275.08,-104.8 275.08,-74 43.2,-74"/>
<text text-anchor="start" x="50.2" y="-86.2" font-family="Arial" font-size="14.00">created_at </text>
<text text-anchor="start" x="120.25" y="-86.2" font-family="Arial" font-size="14.00" fill="#666666">[bigint unsigned]</text>
<polygon fill="none" stroke="black" points="43.2,-43.2 43.2,-74 275.08,-74 275.08,-43.2 43.2,-43.2"/>
<text text-anchor="start" x="50.2" y="-55.4" font-family="Arial" font-size="14.00">updated_at </text>
<text text-anchor="start" x="124.16" y="-55.4" font-family="Arial" font-size="14.00" fill="#666666">[bigint unsigned]</text>
</g>
<!-- plats&#45;&gt;users -->
<g id="edge1" class="edge">
<title>plats:user_id&#45;&gt;users:user_id</title>
<path fill="none" stroke="black" d="M265.11,-586.74C320.47,-558.97 335.95,-305 276.08,-305"/>
<polygon fill="black" stroke="black" points="265.14,-586.73 254.35,-584.75 259.96,-588.01 255.75,-589.04 255.75,-589.04 255.75,-589.04 259.96,-588.01 256.5,-593.49 265.14,-586.73"/>
<text text-anchor="start" x="262.1" y="-599.2" font-family="Arial" font-size="10.00">FOREIGN KEY (user_id) REFERENCES users (user_id)</text>
</g>
</g>
</svg>
