<?xml version="1.0" encoding="UTF-8" standalone="no"?>
<!DOCTYPE svg PUBLIC "-//W3C//DTD SVG 1.1//EN"
 "http://www.w3.org/Graphics/SVG/1.1/DTD/svg11.dtd">
<!-- Generated by graphviz version 12.1.2 (20240928.0832)
 -->
<!-- Title: stlatica Pages: 1 -->
<svg width="1428pt" height="1031pt"
 viewBox="0.00 0.00 1427.67 1031.20" xmlns="http://www.w3.org/2000/svg" xmlns:xlink="http://www.w3.org/1999/xlink">
<g id="graph0" class="graph" transform="scale(1 1) rotate(0) translate(4 1027.2)">
<title>stlatica</title>
<polygon fill="white" stroke="none" points="-4,4 -4,-1027.2 1423.67,-1027.2 1423.67,4 -4,4"/>
<!-- goose_db_version -->
<g id="node1" class="node">
<title>goose_db_version</title>
<polygon fill="#efefef" stroke="none" points="61.47,-944.4 61.47,-980 330.95,-980 330.95,-944.4 61.47,-944.4"/>
<polygon fill="none" stroke="black" points="61.47,-944.4 61.47,-980 330.95,-980 330.95,-944.4 61.47,-944.4"/>
<text text-anchor="start" x="68.47" y="-957.8" font-family="Arial Bold" font-size="18.00">goose_db_version</text>
<text text-anchor="start" x="199.46" y="-957.8" font-family="Arial" font-size="14.00">    </text>
<text text-anchor="start" x="230.57" y="-957.8" font-family="Arial" font-size="14.00" fill="#666666">[BASE TABLE]</text>
<polygon fill="none" stroke="black" points="61.47,-913.6 61.47,-944.4 330.95,-944.4 330.95,-913.6 61.47,-913.6"/>
<text text-anchor="start" x="68.47" y="-925.8" font-family="Arial" font-size="14.00">id </text>
<text text-anchor="start" x="83.26" y="-925.8" font-family="Arial" font-size="14.00" fill="#666666">[bigint unsigned]</text>
<polygon fill="none" stroke="black" points="61.47,-882.8 61.47,-913.6 330.95,-913.6 330.95,-882.8 61.47,-882.8"/>
<text text-anchor="start" x="68.47" y="-895" font-family="Arial" font-size="14.00">version_id </text>
<text text-anchor="start" x="136.18" y="-895" font-family="Arial" font-size="14.00" fill="#666666">[bigint]</text>
<polygon fill="none" stroke="black" points="61.47,-852 61.47,-882.8 330.95,-882.8 330.95,-852 61.47,-852"/>
<text text-anchor="start" x="68.47" y="-864.2" font-family="Arial" font-size="14.00">is_applied </text>
<text text-anchor="start" x="135.41" y="-864.2" font-family="Arial" font-size="14.00" fill="#666666">[tinyint(1)]</text>
<polygon fill="none" stroke="black" points="61.47,-821.2 61.47,-852 330.95,-852 330.95,-821.2 61.47,-821.2"/>
<text text-anchor="start" x="68.47" y="-833.4" font-family="Arial" font-size="14.00">tstamp </text>
<text text-anchor="start" x="114.38" y="-833.4" font-family="Arial" font-size="14.00" fill="#666666">[timestamp]</text>
</g>
<!-- plats -->
<g id="node2" class="node">
<title>plats</title>
<polygon fill="#efefef" stroke="none" points="74.25,-647.8 74.25,-683.4 264.17,-683.4 264.17,-647.8 74.25,-647.8"/>
<polygon fill="none" stroke="black" points="74.25,-647.8 74.25,-683.4 264.17,-683.4 264.17,-647.8 74.25,-647.8"/>
<text text-anchor="start" x="89.97" y="-661.2" font-family="Arial Bold" font-size="18.00">plats</text>
<text text-anchor="start" x="123.96" y="-661.2" font-family="Arial" font-size="14.00">    </text>
<text text-anchor="start" x="155.08" y="-661.2" font-family="Arial" font-size="14.00" fill="#666666">[BASE TABLE]</text>
<polygon fill="none" stroke="black" points="74.25,-617 74.25,-647.8 264.17,-647.8 264.17,-617 74.25,-617"/>
<text text-anchor="start" x="81.25" y="-629.2" font-family="Arial" font-size="14.00">plat_id </text>
<text text-anchor="start" x="126.39" y="-629.2" font-family="Arial" font-size="14.00" fill="#666666">[char(26)]</text>
<polygon fill="none" stroke="black" points="74.25,-586.2 74.25,-617 264.17,-617 264.17,-586.2 74.25,-586.2"/>
<text text-anchor="start" x="81.25" y="-598.4" font-family="Arial" font-size="14.00">user_id </text>
<text text-anchor="start" x="131.06" y="-598.4" font-family="Arial" font-size="14.00" fill="#666666">[char(26)]</text>
<polygon fill="none" stroke="black" points="74.25,-555.4 74.25,-586.2 264.17,-586.2 264.17,-555.4 74.25,-555.4"/>
<text text-anchor="start" x="81.25" y="-567.6" font-family="Arial" font-size="14.00">content </text>
<text text-anchor="start" x="131.06" y="-567.6" font-family="Arial" font-size="14.00" fill="#666666">[varchar(255)]</text>
<polygon fill="none" stroke="black" points="74.25,-524.6 74.25,-555.4 264.17,-555.4 264.17,-524.6 74.25,-524.6"/>
<text text-anchor="start" x="81.25" y="-536.8" font-family="Arial" font-size="14.00">created_at </text>
<text text-anchor="start" x="151.3" y="-536.8" font-family="Arial" font-size="14.00" fill="#666666">[bigint unsigned]</text>
<polygon fill="none" stroke="black" points="74.25,-493.8 74.25,-524.6 264.17,-524.6 264.17,-493.8 74.25,-493.8"/>
<text text-anchor="start" x="81.25" y="-506" font-family="Arial" font-size="14.00">updated_at </text>
<text text-anchor="start" x="155.21" y="-506" font-family="Arial" font-size="14.00" fill="#666666">[bigint unsigned]</text>
</g>
<!-- users -->
<g id="node7" class="node">
<title>users</title>
<polygon fill="#efefef" stroke="none" points="637.27,-320.4 637.27,-356 869.15,-356 869.15,-320.4 637.27,-320.4"/>
<polygon fill="none" stroke="black" points="637.27,-320.4 637.27,-356 869.15,-356 869.15,-320.4 637.27,-320.4"/>
<text text-anchor="start" x="672.47" y="-333.8" font-family="Arial Bold" font-size="18.00">users</text>
<text text-anchor="start" x="709.46" y="-333.8" font-family="Arial" font-size="14.00">    </text>
<text text-anchor="start" x="740.58" y="-333.8" font-family="Arial" font-size="14.00" fill="#666666">[BASE TABLE]</text>
<polygon fill="none" stroke="black" points="637.27,-289.6 637.27,-320.4 869.15,-320.4 869.15,-289.6 637.27,-289.6"/>
<text text-anchor="start" x="644.27" y="-301.8" font-family="Arial" font-size="14.00">user_id </text>
<text text-anchor="start" x="694.08" y="-301.8" font-family="Arial" font-size="14.00" fill="#666666">[char(26)]</text>
<polygon fill="none" stroke="black" points="637.27,-258.8 637.27,-289.6 869.15,-289.6 869.15,-258.8 637.27,-258.8"/>
<text text-anchor="start" x="644.27" y="-271" font-family="Arial" font-size="14.00">preferred_user_id </text>
<text text-anchor="start" x="758.67" y="-271" font-family="Arial" font-size="14.00" fill="#666666">[varchar(64)]</text>
<polygon fill="none" stroke="black" points="637.27,-228 637.27,-258.8 869.15,-258.8 869.15,-228 637.27,-228"/>
<text text-anchor="start" x="644.27" y="-240.2" font-family="Arial" font-size="14.00">preferred_user_name </text>
<text text-anchor="start" x="782.79" y="-240.2" font-family="Arial" font-size="14.00" fill="#666666">[varchar(64)]</text>
<polygon fill="none" stroke="black" points="637.27,-197.2 637.27,-228 869.15,-228 869.15,-197.2 637.27,-197.2"/>
<text text-anchor="start" x="644.27" y="-209.4" font-family="Arial" font-size="14.00">registered_at </text>
<text text-anchor="start" x="729.88" y="-209.4" font-family="Arial" font-size="14.00" fill="#666666">[bigint unsigned]</text>
<polygon fill="none" stroke="black" points="637.27,-166.4 637.27,-197.2 869.15,-197.2 869.15,-166.4 637.27,-166.4"/>
<text text-anchor="start" x="644.27" y="-178.6" font-family="Arial" font-size="14.00">is_public </text>
<text text-anchor="start" x="702.63" y="-178.6" font-family="Arial" font-size="14.00" fill="#666666">[tinyint(1)]</text>
<polygon fill="none" stroke="black" points="637.27,-135.6 637.27,-166.4 869.15,-166.4 869.15,-135.6 637.27,-135.6"/>
<text text-anchor="start" x="644.27" y="-147.8" font-family="Arial" font-size="14.00">mail_address </text>
<text text-anchor="start" x="731.42" y="-147.8" font-family="Arial" font-size="14.00" fill="#666666">[varchar(256)]</text>
<polygon fill="none" stroke="black" points="637.27,-104.8 637.27,-135.6 869.15,-135.6 869.15,-104.8 637.27,-104.8"/>
<text text-anchor="start" x="644.27" y="-117" font-family="Arial" font-size="14.00">icon_image_id </text>
<text text-anchor="start" x="738.44" y="-117" font-family="Arial" font-size="14.00" fill="#666666">[char(26)]</text>
<polygon fill="none" stroke="black" points="637.27,-74 637.27,-104.8 869.15,-104.8 869.15,-74 637.27,-74"/>
<text text-anchor="start" x="644.27" y="-86.2" font-family="Arial" font-size="14.00">created_at </text>
<text text-anchor="start" x="714.32" y="-86.2" font-family="Arial" font-size="14.00" fill="#666666">[bigint unsigned]</text>
<polygon fill="none" stroke="black" points="637.27,-43.2 637.27,-74 869.15,-74 869.15,-43.2 637.27,-43.2"/>
<text text-anchor="start" x="644.27" y="-55.4" font-family="Arial" font-size="14.00">updated_at </text>
<text text-anchor="start" x="718.23" y="-55.4" font-family="Arial" font-size="14.00" fill="#666666">[bigint unsigned]</text>
</g>
<!-- plats&#45;&gt;users -->
<g id="edge1" class="edge">
<title>plats:user_id&#45;&gt;users:user_id</title>
<path fill="none" stroke="black" d="M275.44,-600.84C335.36,-591.05 267.34,-489.47 317.21,-435.2 420.85,-322.43 483.11,-305 636.27,-305"/>
<polygon fill="black" stroke="black" points="275.48,-600.83 265.17,-597.09 270.16,-601.23 265.84,-601.55 265.84,-601.55 265.84,-601.55 270.16,-601.23 265.84,-606.06 275.48,-600.83"/>
<text text-anchor="start" x="7" y="-611.6" font-family="Arial" font-size="10.00">FOREIGN KEY (user_id) REFERENCES users (user_id)</text>
</g>
<!-- timeline_users -->
<g id="node3" class="node">
<title>timeline_users</title>
<polygon fill="#efefef" stroke="none" points="435.48,-944.4 435.48,-980 678.94,-980 678.94,-944.4 435.48,-944.4"/>
<polygon fill="none" stroke="black" points="435.48,-944.4 435.48,-980 678.94,-980 678.94,-944.4 435.48,-944.4"/>
<text text-anchor="start" x="442.48" y="-957.8" font-family="Arial Bold" font-size="18.00">timeline_users</text>
<text text-anchor="start" x="547.45" y="-957.8" font-family="Arial" font-size="14.00">    </text>
<text text-anchor="start" x="578.57" y="-957.8" font-family="Arial" font-size="14.00" fill="#666666">[BASE TABLE]</text>
<polygon fill="none" stroke="black" points="435.48,-913.6 435.48,-944.4 678.94,-944.4 678.94,-913.6 435.48,-913.6"/>
<text text-anchor="start" x="442.48" y="-925.8" font-family="Arial" font-size="14.00">timeline_id </text>
<text text-anchor="start" x="513.29" y="-925.8" font-family="Arial" font-size="14.00" fill="#666666">[char(26)]</text>
<polygon fill="none" stroke="black" points="435.48,-882.8 435.48,-913.6 678.94,-913.6 678.94,-882.8 435.48,-882.8"/>
<text text-anchor="start" x="442.48" y="-895" font-family="Arial" font-size="14.00">user_id </text>
<text text-anchor="start" x="492.28" y="-895" font-family="Arial" font-size="14.00" fill="#666666">[char(26)]</text>
<polygon fill="none" stroke="black" points="435.48,-852 435.48,-882.8 678.94,-882.8 678.94,-852 435.48,-852"/>
<text text-anchor="start" x="442.48" y="-864.2" font-family="Arial" font-size="14.00">created_at </text>
<text text-anchor="start" x="512.53" y="-864.2" font-family="Arial" font-size="14.00" fill="#666666">[bigint unsigned]</text>
<polygon fill="none" stroke="black" points="435.48,-821.2 435.48,-852 678.94,-852 678.94,-821.2 435.48,-821.2"/>
<text text-anchor="start" x="442.48" y="-833.4" font-family="Arial" font-size="14.00">updated_at </text>
<text text-anchor="start" x="516.44" y="-833.4" font-family="Arial" font-size="14.00" fill="#666666">[bigint unsigned]</text>
</g>
<!-- timelines -->
<g id="node4" class="node">
<title>timelines</title>
<polygon fill="#efefef" stroke="none" points="368.97,-663.2 368.97,-698.8 573.45,-698.8 573.45,-663.2 368.97,-663.2"/>
<polygon fill="none" stroke="black" points="368.97,-663.2 368.97,-698.8 573.45,-698.8 573.45,-663.2 368.97,-663.2"/>
<text text-anchor="start" x="375.97" y="-676.6" font-family="Arial Bold" font-size="18.00">timelines</text>
<text text-anchor="start" x="441.96" y="-676.6" font-family="Arial" font-size="14.00">    </text>
<text text-anchor="start" x="473.08" y="-676.6" font-family="Arial" font-size="14.00" fill="#666666">[BASE TABLE]</text>
<polygon fill="none" stroke="black" points="368.97,-632.4 368.97,-663.2 573.45,-663.2 573.45,-632.4 368.97,-632.4"/>
<text text-anchor="start" x="375.97" y="-644.6" font-family="Arial" font-size="14.00">timeline_id </text>
<text text-anchor="start" x="446.79" y="-644.6" font-family="Arial" font-size="14.00" fill="#666666">[char(26)]</text>
<polygon fill="none" stroke="black" points="368.97,-601.6 368.97,-632.4 573.45,-632.4 573.45,-601.6 368.97,-601.6"/>
<text text-anchor="start" x="375.97" y="-613.8" font-family="Arial" font-size="14.00">user_id </text>
<text text-anchor="start" x="425.78" y="-613.8" font-family="Arial" font-size="14.00" fill="#666666">[char(26)]</text>
<polygon fill="none" stroke="black" points="368.97,-570.8 368.97,-601.6 573.45,-601.6 573.45,-570.8 368.97,-570.8"/>
<text text-anchor="start" x="375.97" y="-583" font-family="Arial" font-size="14.00">name </text>
<text text-anchor="start" x="414.88" y="-583" font-family="Arial" font-size="14.00" fill="#666666">[varchar(64)]</text>
<polygon fill="none" stroke="black" points="368.97,-540 368.97,-570.8 573.45,-570.8 573.45,-540 368.97,-540"/>
<text text-anchor="start" x="375.97" y="-552.2" font-family="Arial" font-size="14.00">description </text>
<text text-anchor="start" x="447.56" y="-552.2" font-family="Arial" font-size="14.00" fill="#666666">[varchar(255)]</text>
<polygon fill="none" stroke="black" points="368.97,-509.2 368.97,-540 573.45,-540 573.45,-509.2 368.97,-509.2"/>
<text text-anchor="start" x="375.97" y="-521.4" font-family="Arial" font-size="14.00">created_at </text>
<text text-anchor="start" x="446.02" y="-521.4" font-family="Arial" font-size="14.00" fill="#666666">[bigint unsigned]</text>
<polygon fill="none" stroke="black" points="368.97,-478.4 368.97,-509.2 573.45,-509.2 573.45,-478.4 368.97,-478.4"/>
<text text-anchor="start" x="375.97" y="-490.6" font-family="Arial" font-size="14.00">updated_at </text>
<text text-anchor="start" x="449.93" y="-490.6" font-family="Arial" font-size="14.00" fill="#666666">[bigint unsigned]</text>
</g>
<!-- timeline_users&#45;&gt;timelines -->
<g id="edge2" class="edge">
<title>timeline_users:timeline_id&#45;&gt;timelines:timeline_id</title>
<path fill="none" stroke="black" d="M424.3,-928.14C370.35,-918.41 396.53,-828.08 435.48,-778 474.39,-727.98 534.44,-791.94 573.45,-742 599.22,-709 616.32,-647.8 574.45,-647.8"/>
<polygon fill="black" stroke="black" points="424.18,-928.13 433.77,-933.46 429.5,-928.58 433.81,-928.94 433.81,-928.94 433.81,-928.94 429.5,-928.58 434.52,-924.49 424.18,-928.13"/>
<text text-anchor="start" x="441.48" y="-939" font-family="Arial" font-size="10.00">FOREIGN KEY (timeline_id) REFERENCES timelines (timeline_id)</text>
</g>
<!-- timeline_users&#45;&gt;users -->
<g id="edge3" class="edge">
<title>timeline_users:user_id&#45;&gt;users:user_id</title>
<path fill="none" stroke="black" d="M690.29,-897.11C727.12,-888.2 689.26,-826.37 678.94,-778 675.3,-760.92 667.42,-758.94 663.21,-742 626.33,-593.73 643.85,-551.85 637.27,-399.2 635.47,-357.37 594.4,-305 636.27,-305"/>
<polygon fill="black" stroke="black" points="690.22,-897.12 679.81,-893.69 684.92,-897.68 680.61,-898.13 680.61,-898.13 680.61,-898.13 684.92,-897.68 680.75,-902.64 690.22,-897.12"/>
<text text-anchor="start" x="686.94" y="-908.2" font-family="Arial" font-size="10.00">FOREIGN KEY (user_id) REFERENCES users (user_id)</text>
</g>
<!-- timelines&#45;&gt;users -->
<g id="edge4" class="edge">
<title>timelines:user_id&#45;&gt;users:user_id</title>
<path fill="none" stroke="black" d="M584.53,-616.41C704.83,-601.36 498.5,-305 636.27,-305"/>
<polygon fill="black" stroke="black" points="584.77,-616.39 574.52,-612.49 579.44,-616.71 575.12,-616.96 575.12,-616.96 575.12,-616.96 579.44,-616.71 575.05,-621.47 584.77,-616.39"/>
<text text-anchor="start" x="581.45" y="-627" font-family="Arial" font-size="10.00">FOREIGN KEY (user_id) REFERENCES users (user_id)</text>
</g>
<!-- user_auth_credentials -->
<g id="node5" class="node">
<title>user_auth_credentials</title>
<polygon fill="#efefef" stroke="none" points="715.5,-632.4 715.5,-668 1010.92,-668 1010.92,-632.4 715.5,-632.4"/>
<polygon fill="none" stroke="black" points="715.5,-632.4 715.5,-668 1010.92,-668 1010.92,-632.4 715.5,-632.4"/>
<text text-anchor="start" x="722.5" y="-645.8" font-family="Arial Bold" font-size="18.00">user_auth_credentials</text>
<text text-anchor="start" x="879.43" y="-645.8" font-family="Arial" font-size="14.00">    </text>
<text text-anchor="start" x="910.55" y="-645.8" font-family="Arial" font-size="14.00" fill="#666666">[BASE TABLE]</text>
<polygon fill="none" stroke="black" points="715.5,-601.6 715.5,-632.4 1010.92,-632.4 1010.92,-601.6 715.5,-601.6"/>
<text text-anchor="start" x="722.5" y="-613.8" font-family="Arial" font-size="14.00">user_id </text>
<text text-anchor="start" x="772.3" y="-613.8" font-family="Arial" font-size="14.00" fill="#666666">[char(26)]</text>
<polygon fill="none" stroke="black" points="715.5,-570.8 715.5,-601.6 1010.92,-601.6 1010.92,-570.8 715.5,-570.8"/>
<text text-anchor="start" x="722.5" y="-583" font-family="Arial" font-size="14.00">encrypted_password </text>
<text text-anchor="start" x="855.57" y="-583" font-family="Arial" font-size="14.00" fill="#666666">[varchar(64)]</text>
<polygon fill="none" stroke="black" points="715.5,-540 715.5,-570.8 1010.92,-570.8 1010.92,-540 715.5,-540"/>
<text text-anchor="start" x="722.5" y="-552.2" font-family="Arial" font-size="14.00">created_at </text>
<text text-anchor="start" x="792.54" y="-552.2" font-family="Arial" font-size="14.00" fill="#666666">[bigint unsigned]</text>
<polygon fill="none" stroke="black" points="715.5,-509.2 715.5,-540 1010.92,-540 1010.92,-509.2 715.5,-509.2"/>
<text text-anchor="start" x="722.5" y="-521.4" font-family="Arial" font-size="14.00">updated_at </text>
<text text-anchor="start" x="796.46" y="-521.4" font-family="Arial" font-size="14.00" fill="#666666">[bigint unsigned]</text>
</g>
<!-- user_auth_credentials&#45;&gt;users -->
<g id="edge5" class="edge">
<title>user_auth_credentials:user_id&#45;&gt;users:user_id</title>
<path fill="none" stroke="black" d="M704.35,-616.17C650.81,-606.73 680.54,-518.94 715.5,-466 756.53,-403.86 827.99,-461.26 869.15,-399.2 892.29,-364.31 912.02,-305 870.15,-305"/>
<polygon fill="black" stroke="black" points="704.2,-616.16 713.8,-621.46 709.51,-616.59 713.83,-616.95 713.83,-616.95 713.83,-616.95 709.51,-616.59 714.53,-612.49 704.2,-616.16"/>
<text text-anchor="start" x="522.62" y="-601" font-family="Arial" font-size="10.00">FOREIGN KEY (user_id) REFERENCES users (user_id)</text>
</g>
<!-- user_relations -->
<g id="node6" class="node">
<title>user_relations</title>
<polygon fill="#efefef" stroke="none" points="1115.48,-632.4 1115.48,-668 1354.94,-668 1354.94,-632.4 1115.48,-632.4"/>
<polygon fill="none" stroke="black" points="1115.48,-632.4 1115.48,-668 1354.94,-668 1354.94,-632.4 1115.48,-632.4"/>
<text text-anchor="start" x="1122.48" y="-645.8" font-family="Arial Bold" font-size="18.00">user_relations</text>
<text text-anchor="start" x="1223.45" y="-645.8" font-family="Arial" font-size="14.00">    </text>
<text text-anchor="start" x="1254.57" y="-645.8" font-family="Arial" font-size="14.00" fill="#666666">[BASE TABLE]</text>
<polygon fill="none" stroke="black" points="1115.48,-601.6 1115.48,-632.4 1354.94,-632.4 1354.94,-601.6 1115.48,-601.6"/>
<text text-anchor="start" x="1122.48" y="-613.8" font-family="Arial" font-size="14.00">follow_user_id </text>
<text text-anchor="start" x="1215.87" y="-613.8" font-family="Arial" font-size="14.00" fill="#666666">[char(26)]</text>
<polygon fill="none" stroke="black" points="1115.48,-570.8 1115.48,-601.6 1354.94,-601.6 1354.94,-570.8 1115.48,-570.8"/>
<text text-anchor="start" x="1122.48" y="-583" font-family="Arial" font-size="14.00">follower_user_id </text>
<text text-anchor="start" x="1228.32" y="-583" font-family="Arial" font-size="14.00" fill="#666666">[char(26)]</text>
<polygon fill="none" stroke="black" points="1115.48,-540 1115.48,-570.8 1354.94,-570.8 1354.94,-540 1115.48,-540"/>
<text text-anchor="start" x="1122.48" y="-552.2" font-family="Arial" font-size="14.00">created_at </text>
<text text-anchor="start" x="1192.53" y="-552.2" font-family="Arial" font-size="14.00" fill="#666666">[bigint unsigned]</text>
<polygon fill="none" stroke="black" points="1115.48,-509.2 1115.48,-540 1354.94,-540 1354.94,-509.2 1115.48,-509.2"/>
<text text-anchor="start" x="1122.48" y="-521.4" font-family="Arial" font-size="14.00">updated_at </text>
<text text-anchor="start" x="1196.44" y="-521.4" font-family="Arial" font-size="14.00" fill="#666666">[bigint unsigned]</text>
</g>
<!-- user_relations&#45;&gt;users -->
<g id="edge6" class="edge">
<title>user_relations:follow_user_id&#45;&gt;users:user_id</title>
<path fill="none" stroke="black" d="M1104.14,-616.33C1037.62,-606.87 1110.2,-500.17 1063.21,-435.2 1002.56,-351.34 973.64,-305 870.15,-305"/>
<polygon fill="black" stroke="black" points="1104.17,-616.33 1113.85,-621.47 1109.49,-616.67 1113.81,-616.96 1113.81,-616.96 1113.81,-616.96 1109.49,-616.67 1114.44,-612.49 1104.17,-616.33"/>
<text text-anchor="start" x="899.26" y="-601" font-family="Arial" font-size="10.00">FOREIGN KEY (follow_user_id) REFERENCES users (user_id)</text>
</g>
<!-- user_relations&#45;&gt;users -->
<g id="edge7" class="edge">
<title>user_relations:follower_user_id&#45;&gt;users:user_id</title>
<path fill="none" stroke="black" d="M1104.35,-585.43C1049.92,-576.32 1103.97,-488.55 1063.21,-435.2 1000.38,-352.96 973.64,-305 870.15,-305"/>
<polygon fill="black" stroke="black" points="1104.18,-585.42 1113.81,-590.66 1109.5,-585.82 1113.81,-586.15 1113.81,-586.15 1113.81,-586.15 1109.5,-585.82 1114.49,-581.69 1104.18,-585.42"/>
<text text-anchor="start" x="1121.48" y="-570.2" font-family="Arial" font-size="10.00">FOREIGN KEY (follower_user_id) REFERENCES users (user_id)</text>
</g>
</g>
</svg>
