<?xml version="1.0" encoding="UTF-8" standalone="no"?>
<!DOCTYPE svg PUBLIC "-//W3C//DTD SVG 1.1//EN"
 "http://www.w3.org/Graphics/SVG/1.1/DTD/svg11.dtd">
<!-- Generated by graphviz version 12.1.2 (20240928.0832)
 -->
<!-- Title: timelines Pages: 1 -->
<svg width="606pt" height="1037pt"
 viewBox="0.00 0.00 605.85 1037.20" xmlns="http://www.w3.org/2000/svg" xmlns:xlink="http://www.w3.org/1999/xlink">
<g id="graph0" class="graph" transform="scale(1 1) rotate(0) translate(4 1033.2)">
<title>timelines</title>
<polygon fill="white" stroke="none" points="-4,4 -4,-1033.2 601.85,-1033.2 601.85,4 -4,4"/>
<!-- timelines -->
<g id="node1" class="node">
<title>timelines</title>
<polygon fill="#efefef" stroke="none" points="62.69,-666.2 62.69,-701.8 267.17,-701.8 267.17,-666.2 62.69,-666.2"/>
<polygon fill="none" stroke="black" points="62.69,-666.2 62.69,-701.8 267.17,-701.8 267.17,-666.2 62.69,-666.2"/>
<text text-anchor="start" x="69.69" y="-679.6" font-family="Arial Bold" font-size="18.00">timelines</text>
<text text-anchor="start" x="135.68" y="-679.6" font-family="Arial" font-size="14.00">    </text>
<text text-anchor="start" x="166.8" y="-679.6" font-family="Arial" font-size="14.00" fill="#666666">[BASE TABLE]</text>
<polygon fill="none" stroke="black" points="62.69,-635.4 62.69,-666.2 267.17,-666.2 267.17,-635.4 62.69,-635.4"/>
<text text-anchor="start" x="69.69" y="-647.6" font-family="Arial" font-size="14.00">timeline_id </text>
<text text-anchor="start" x="140.51" y="-647.6" font-family="Arial" font-size="14.00" fill="#666666">[char(26)]</text>
<polygon fill="none" stroke="black" points="62.69,-604.6 62.69,-635.4 267.17,-635.4 267.17,-604.6 62.69,-604.6"/>
<text text-anchor="start" x="69.69" y="-616.8" font-family="Arial" font-size="14.00">user_id </text>
<text text-anchor="start" x="119.5" y="-616.8" font-family="Arial" font-size="14.00" fill="#666666">[char(26)]</text>
<polygon fill="none" stroke="black" points="62.69,-573.8 62.69,-604.6 267.17,-604.6 267.17,-573.8 62.69,-573.8"/>
<text text-anchor="start" x="69.69" y="-586" font-family="Arial" font-size="14.00">name </text>
<text text-anchor="start" x="108.6" y="-586" font-family="Arial" font-size="14.00" fill="#666666">[varchar(64)]</text>
<polygon fill="none" stroke="black" points="62.69,-543 62.69,-573.8 267.17,-573.8 267.17,-543 62.69,-543"/>
<text text-anchor="start" x="69.69" y="-555.2" font-family="Arial" font-size="14.00">description </text>
<text text-anchor="start" x="141.29" y="-555.2" font-family="Arial" font-size="14.00" fill="#666666">[varchar(255)]</text>
<polygon fill="none" stroke="black" points="62.69,-512.2 62.69,-543 267.17,-543 267.17,-512.2 62.69,-512.2"/>
<text text-anchor="start" x="69.69" y="-524.4" font-family="Arial" font-size="14.00">created_at </text>
<text text-anchor="start" x="139.74" y="-524.4" font-family="Arial" font-size="14.00" fill="#666666">[bigint unsigned]</text>
<polygon fill="none" stroke="black" points="62.69,-481.4 62.69,-512.2 267.17,-512.2 267.17,-481.4 62.69,-481.4"/>
<text text-anchor="start" x="69.69" y="-493.6" font-family="Arial" font-size="14.00">updated_at </text>
<text text-anchor="start" x="143.65" y="-493.6" font-family="Arial" font-size="14.00" fill="#666666">[bigint unsigned]</text>
<polygon fill="none" stroke="black" stroke-width="3" points="61.19,-479.9 61.19,-703.3 268.67,-703.3 268.67,-479.9 61.19,-479.9"/>
</g>
<!-- users -->
<g id="node3" class="node">
<title>users</title>
<polygon fill="#efefef" stroke="none" points="48.99,-320.4 48.99,-356 280.87,-356 280.87,-320.4 48.99,-320.4"/>
<polygon fill="none" stroke="black" points="48.99,-320.4 48.99,-356 280.87,-356 280.87,-320.4 48.99,-320.4"/>
<text text-anchor="start" x="84.19" y="-333.8" font-family="Arial Bold" font-size="18.00">users</text>
<text text-anchor="start" x="121.18" y="-333.8" font-family="Arial" font-size="14.00">    </text>
<text text-anchor="start" x="152.3" y="-333.8" font-family="Arial" font-size="14.00" fill="#666666">[BASE TABLE]</text>
<polygon fill="none" stroke="black" points="48.99,-289.6 48.99,-320.4 280.87,-320.4 280.87,-289.6 48.99,-289.6"/>
<text text-anchor="start" x="55.99" y="-301.8" font-family="Arial" font-size="14.00">user_id </text>
<text text-anchor="start" x="105.8" y="-301.8" font-family="Arial" font-size="14.00" fill="#666666">[char(26)]</text>
<polygon fill="none" stroke="black" points="48.99,-258.8 48.99,-289.6 280.87,-289.6 280.87,-258.8 48.99,-258.8"/>
<text text-anchor="start" x="55.99" y="-271" font-family="Arial" font-size="14.00">preferred_user_id </text>
<text text-anchor="start" x="170.39" y="-271" font-family="Arial" font-size="14.00" fill="#666666">[varchar(64)]</text>
<polygon fill="none" stroke="black" points="48.99,-228 48.99,-258.8 280.87,-258.8 280.87,-228 48.99,-228"/>
<text text-anchor="start" x="55.99" y="-240.2" font-family="Arial" font-size="14.00">preferred_user_name </text>
<text text-anchor="start" x="194.52" y="-240.2" font-family="Arial" font-size="14.00" fill="#666666">[varchar(64)]</text>
<polygon fill="none" stroke="black" points="48.99,-197.2 48.99,-228 280.87,-228 280.87,-197.2 48.99,-197.2"/>
<text text-anchor="start" x="55.99" y="-209.4" font-family="Arial" font-size="14.00">registered_at </text>
<text text-anchor="start" x="141.6" y="-209.4" font-family="Arial" font-size="14.00" fill="#666666">[bigint unsigned]</text>
<polygon fill="none" stroke="black" points="48.99,-166.4 48.99,-197.2 280.87,-197.2 280.87,-166.4 48.99,-166.4"/>
<text text-anchor="start" x="55.99" y="-178.6" font-family="Arial" font-size="14.00">is_public </text>
<text text-anchor="start" x="114.36" y="-178.6" font-family="Arial" font-size="14.00" fill="#666666">[tinyint(1)]</text>
<polygon fill="none" stroke="black" points="48.99,-135.6 48.99,-166.4 280.87,-166.4 280.87,-135.6 48.99,-135.6"/>
<text text-anchor="start" x="55.99" y="-147.8" font-family="Arial" font-size="14.00">mail_address </text>
<text text-anchor="start" x="143.14" y="-147.8" font-family="Arial" font-size="14.00" fill="#666666">[varchar(256)]</text>
<polygon fill="none" stroke="black" points="48.99,-104.8 48.99,-135.6 280.87,-135.6 280.87,-104.8 48.99,-104.8"/>
<text text-anchor="start" x="55.99" y="-117" font-family="Arial" font-size="14.00">icon_image_id </text>
<text text-anchor="start" x="150.16" y="-117" font-family="Arial" font-size="14.00" fill="#666666">[char(26)]</text>
<polygon fill="none" stroke="black" points="48.99,-74 48.99,-104.8 280.87,-104.8 280.87,-74 48.99,-74"/>
<text text-anchor="start" x="55.99" y="-86.2" font-family="Arial" font-size="14.00">created_at </text>
<text text-anchor="start" x="126.04" y="-86.2" font-family="Arial" font-size="14.00" fill="#666666">[bigint unsigned]</text>
<polygon fill="none" stroke="black" points="48.99,-43.2 48.99,-74 280.87,-74 280.87,-43.2 48.99,-43.2"/>
<text text-anchor="start" x="55.99" y="-55.4" font-family="Arial" font-size="14.00">updated_at </text>
<text text-anchor="start" x="129.95" y="-55.4" font-family="Arial" font-size="14.00" fill="#666666">[bigint unsigned]</text>
</g>
<!-- timelines&#45;&gt;users -->
<g id="edge2" class="edge">
<title>timelines:user_id&#45;&gt;users:user_id</title>
<path fill="none" stroke="black" d="M278.03,-617.82C339.38,-589.99 348.52,-305 281.87,-305"/>
<polygon fill="black" stroke="black" points="278.26,-617.77 267.53,-615.53 273.05,-618.92 268.82,-619.86 268.82,-619.86 268.82,-619.86 273.05,-618.92 269.47,-624.32 278.26,-617.77"/>
<text text-anchor="start" x="275.17" y="-630" font-family="Arial" font-size="10.00">FOREIGN KEY (user_id) REFERENCES users (user_id)</text>
</g>
<!-- timeline_users -->
<g id="node2" class="node">
<title>timeline_users</title>
<polygon fill="#efefef" stroke="none" points="43.2,-950.4 43.2,-986 286.67,-986 286.67,-950.4 43.2,-950.4"/>
<polygon fill="none" stroke="black" points="43.2,-950.4 43.2,-986 286.67,-986 286.67,-950.4 43.2,-950.4"/>
<text text-anchor="start" x="50.2" y="-963.8" font-family="Arial Bold" font-size="18.00">timeline_users</text>
<text text-anchor="start" x="155.18" y="-963.8" font-family="Arial" font-size="14.00">    </text>
<text text-anchor="start" x="186.29" y="-963.8" font-family="Arial" font-size="14.00" fill="#666666">[BASE TABLE]</text>
<polygon fill="none" stroke="black" points="43.2,-919.6 43.2,-950.4 286.67,-950.4 286.67,-919.6 43.2,-919.6"/>
<text text-anchor="start" x="50.2" y="-931.8" font-family="Arial" font-size="14.00">timeline_id </text>
<text text-anchor="start" x="121.01" y="-931.8" font-family="Arial" font-size="14.00" fill="#666666">[char(26)]</text>
<polygon fill="none" stroke="black" points="43.2,-888.8 43.2,-919.6 286.67,-919.6 286.67,-888.8 43.2,-888.8"/>
<text text-anchor="start" x="50.2" y="-901" font-family="Arial" font-size="14.00">user_id </text>
<text text-anchor="start" x="100.01" y="-901" font-family="Arial" font-size="14.00" fill="#666666">[char(26)]</text>
<polygon fill="none" stroke="black" points="43.2,-858 43.2,-888.8 286.67,-888.8 286.67,-858 43.2,-858"/>
<text text-anchor="start" x="50.2" y="-870.2" font-family="Arial" font-size="14.00">created_at </text>
<text text-anchor="start" x="120.25" y="-870.2" font-family="Arial" font-size="14.00" fill="#666666">[bigint unsigned]</text>
<polygon fill="none" stroke="black" points="43.2,-827.2 43.2,-858 286.67,-858 286.67,-827.2 43.2,-827.2"/>
<text text-anchor="start" x="50.2" y="-839.4" font-family="Arial" font-size="14.00">updated_at </text>
<text text-anchor="start" x="124.16" y="-839.4" font-family="Arial" font-size="14.00" fill="#666666">[bigint unsigned]</text>
</g>
<!-- timeline_users&#45;&gt;timelines -->
<g id="edge1" class="edge">
<title>timeline_users:timeline_id&#45;&gt;timelines:timeline_id</title>
<path fill="none" stroke="black" d="M298.07,-934.33C413.08,-919.13 391.19,-650.8 268.17,-650.8"/>
<polygon fill="black" stroke="black" points="297.98,-934.33 287.71,-930.49 292.66,-934.68 288.33,-934.96 288.33,-934.96 288.33,-934.96 292.66,-934.68 288.29,-939.47 297.98,-934.33"/>
<text text-anchor="start" x="294.67" y="-945" font-family="Arial" font-size="10.00">FOREIGN KEY (timeline_id) REFERENCES timelines (timeline_id)</text>
</g>
</g>
</svg>
