<?xml version="1.0" encoding="UTF-8" standalone="no"?>
<!DOCTYPE svg PUBLIC "-//W3C//DTD SVG 1.1//EN"
 "http://www.w3.org/Graphics/SVG/1.1/DTD/svg11.dtd">
<!-- Generated by graphviz version 12.1.2 (20240928.0832)
 -->
<!-- Title: timeline_users Pages: 1 -->
<svg width="829pt" height="694pt"
 viewBox="0.00 0.00 828.82 694.40" xmlns="http://www.w3.org/2000/svg" xmlns:xlink="http://www.w3.org/1999/xlink">
<g id="graph0" class="graph" transform="scale(1 1) rotate(0) translate(4 690.4)">
<title>timeline_users</title>
<polygon fill="white" stroke="none" points="-4,4 -4,-690.4 824.82,-690.4 824.82,4 -4,4"/>
<!-- timeline_users -->
<g id="node1" class="node">
<title>timeline_users</title>
<polygon fill="#efefef" stroke="none" points="311.19,-604.6 311.19,-640.2 554.65,-640.2 554.65,-604.6 311.19,-604.6"/>
<polygon fill="none" stroke="black" points="311.19,-604.6 311.19,-640.2 554.65,-640.2 554.65,-604.6 311.19,-604.6"/>
<text text-anchor="start" x="318.19" y="-618" font-family="Arial Bold" font-size="18.00">timeline_users</text>
<text text-anchor="start" x="423.16" y="-618" font-family="Arial" font-size="14.00">    </text>
<text text-anchor="start" x="454.28" y="-618" font-family="Arial" font-size="14.00" fill="#666666">[BASE TABLE]</text>
<polygon fill="none" stroke="black" points="311.19,-573.8 311.19,-604.6 554.65,-604.6 554.65,-573.8 311.19,-573.8"/>
<text text-anchor="start" x="318.19" y="-586" font-family="Arial" font-size="14.00">timeline_id </text>
<text text-anchor="start" x="389" y="-586" font-family="Arial" font-size="14.00" fill="#666666">[char(26)]</text>
<polygon fill="none" stroke="black" points="311.19,-543 311.19,-573.8 554.65,-573.8 554.65,-543 311.19,-543"/>
<text text-anchor="start" x="318.19" y="-555.2" font-family="Arial" font-size="14.00">user_id </text>
<text text-anchor="start" x="367.99" y="-555.2" font-family="Arial" font-size="14.00" fill="#666666">[char(26)]</text>
<polygon fill="none" stroke="black" points="311.19,-512.2 311.19,-543 554.65,-543 554.65,-512.2 311.19,-512.2"/>
<text text-anchor="start" x="318.19" y="-524.4" font-family="Arial" font-size="14.00">created_at </text>
<text text-anchor="start" x="388.23" y="-524.4" font-family="Arial" font-size="14.00" fill="#666666">[bigint unsigned]</text>
<polygon fill="none" stroke="black" points="311.19,-481.4 311.19,-512.2 554.65,-512.2 554.65,-481.4 311.19,-481.4"/>
<text text-anchor="start" x="318.19" y="-493.6" font-family="Arial" font-size="14.00">updated_at </text>
<text text-anchor="start" x="392.14" y="-493.6" font-family="Arial" font-size="14.00" fill="#666666">[bigint unsigned]</text>
<polygon fill="none" stroke="black" stroke-width="3" points="309.69,-479.9 309.69,-641.7 556.15,-641.7 556.15,-479.9 309.69,-479.9"/>
</g>
<!-- timelines -->
<g id="node2" class="node">
<title>timelines</title>
<polygon fill="#efefef" stroke="none" points="169.68,-274.2 169.68,-309.8 374.16,-309.8 374.16,-274.2 169.68,-274.2"/>
<polygon fill="none" stroke="black" points="169.68,-274.2 169.68,-309.8 374.16,-309.8 374.16,-274.2 169.68,-274.2"/>
<text text-anchor="start" x="176.68" y="-287.6" font-family="Arial Bold" font-size="18.00">timelines</text>
<text text-anchor="start" x="242.67" y="-287.6" font-family="Arial" font-size="14.00">    </text>
<text text-anchor="start" x="273.79" y="-287.6" font-family="Arial" font-size="14.00" fill="#666666">[BASE TABLE]</text>
<polygon fill="none" stroke="black" points="169.68,-243.4 169.68,-274.2 374.16,-274.2 374.16,-243.4 169.68,-243.4"/>
<text text-anchor="start" x="176.68" y="-255.6" font-family="Arial" font-size="14.00">timeline_id </text>
<text text-anchor="start" x="247.49" y="-255.6" font-family="Arial" font-size="14.00" fill="#666666">[char(26)]</text>
<polygon fill="none" stroke="black" points="169.68,-212.6 169.68,-243.4 374.16,-243.4 374.16,-212.6 169.68,-212.6"/>
<text text-anchor="start" x="176.68" y="-224.8" font-family="Arial" font-size="14.00">user_id </text>
<text text-anchor="start" x="226.49" y="-224.8" font-family="Arial" font-size="14.00" fill="#666666">[char(26)]</text>
<polygon fill="none" stroke="black" points="169.68,-181.8 169.68,-212.6 374.16,-212.6 374.16,-181.8 169.68,-181.8"/>
<text text-anchor="start" x="176.68" y="-194" font-family="Arial" font-size="14.00">name </text>
<text text-anchor="start" x="215.59" y="-194" font-family="Arial" font-size="14.00" fill="#666666">[varchar(64)]</text>
<polygon fill="none" stroke="black" points="169.68,-151 169.68,-181.8 374.16,-181.8 374.16,-151 169.68,-151"/>
<text text-anchor="start" x="176.68" y="-163.2" font-family="Arial" font-size="14.00">description </text>
<text text-anchor="start" x="248.27" y="-163.2" font-family="Arial" font-size="14.00" fill="#666666">[varchar(255)]</text>
<polygon fill="none" stroke="black" points="169.68,-120.2 169.68,-151 374.16,-151 374.16,-120.2 169.68,-120.2"/>
<text text-anchor="start" x="176.68" y="-132.4" font-family="Arial" font-size="14.00">created_at </text>
<text text-anchor="start" x="246.73" y="-132.4" font-family="Arial" font-size="14.00" fill="#666666">[bigint unsigned]</text>
<polygon fill="none" stroke="black" points="169.68,-89.4 169.68,-120.2 374.16,-120.2 374.16,-89.4 169.68,-89.4"/>
<text text-anchor="start" x="176.68" y="-101.6" font-family="Arial" font-size="14.00">updated_at </text>
<text text-anchor="start" x="250.64" y="-101.6" font-family="Arial" font-size="14.00" fill="#666666">[bigint unsigned]</text>
</g>
<!-- timeline_users&#45;&gt;timelines -->
<g id="edge1" class="edge">
<title>timeline_users:timeline_id&#45;&gt;timelines:timeline_id</title>
<path fill="none" stroke="black" d="M299.93,-588.95C131.87,-580.48 372.44,-357.97 374.16,-353 387.81,-313.42 417.03,-258.8 375.16,-258.8"/>
<polygon fill="black" stroke="black" points="299.86,-588.95 309.74,-593.69 305.19,-589.08 309.52,-589.18 309.52,-589.18 309.52,-589.18 305.19,-589.08 309.96,-584.69 299.86,-588.95"/>
<text text-anchor="start" x="7" y="-599.2" font-family="Arial" font-size="10.00">FOREIGN KEY (timeline_id) REFERENCES timelines (timeline_id)</text>
</g>
<!-- users -->
<g id="node3" class="node">
<title>users</title>
<polygon fill="#efefef" stroke="none" points="478.98,-320.4 478.98,-356 710.86,-356 710.86,-320.4 478.98,-320.4"/>
<polygon fill="none" stroke="black" points="478.98,-320.4 478.98,-356 710.86,-356 710.86,-320.4 478.98,-320.4"/>
<text text-anchor="start" x="514.18" y="-333.8" font-family="Arial Bold" font-size="18.00">users</text>
<text text-anchor="start" x="551.17" y="-333.8" font-family="Arial" font-size="14.00">    </text>
<text text-anchor="start" x="582.29" y="-333.8" font-family="Arial" font-size="14.00" fill="#666666">[BASE TABLE]</text>
<polygon fill="none" stroke="black" points="478.98,-289.6 478.98,-320.4 710.86,-320.4 710.86,-289.6 478.98,-289.6"/>
<text text-anchor="start" x="485.98" y="-301.8" font-family="Arial" font-size="14.00">user_id </text>
<text text-anchor="start" x="535.79" y="-301.8" font-family="Arial" font-size="14.00" fill="#666666">[char(26)]</text>
<polygon fill="none" stroke="black" points="478.98,-258.8 478.98,-289.6 710.86,-289.6 710.86,-258.8 478.98,-258.8"/>
<text text-anchor="start" x="485.98" y="-271" font-family="Arial" font-size="14.00">preferred_user_id </text>
<text text-anchor="start" x="600.38" y="-271" font-family="Arial" font-size="14.00" fill="#666666">[varchar(64)]</text>
<polygon fill="none" stroke="black" points="478.98,-228 478.98,-258.8 710.86,-258.8 710.86,-228 478.98,-228"/>
<text text-anchor="start" x="485.98" y="-240.2" font-family="Arial" font-size="14.00">preferred_user_name </text>
<text text-anchor="start" x="624.5" y="-240.2" font-family="Arial" font-size="14.00" fill="#666666">[varchar(64)]</text>
<polygon fill="none" stroke="black" points="478.98,-197.2 478.98,-228 710.86,-228 710.86,-197.2 478.98,-197.2"/>
<text text-anchor="start" x="485.98" y="-209.4" font-family="Arial" font-size="14.00">registered_at </text>
<text text-anchor="start" x="571.58" y="-209.4" font-family="Arial" font-size="14.00" fill="#666666">[bigint unsigned]</text>
<polygon fill="none" stroke="black" points="478.98,-166.4 478.98,-197.2 710.86,-197.2 710.86,-166.4 478.98,-166.4"/>
<text text-anchor="start" x="485.98" y="-178.6" font-family="Arial" font-size="14.00">is_public </text>
<text text-anchor="start" x="544.34" y="-178.6" font-family="Arial" font-size="14.00" fill="#666666">[tinyint(1)]</text>
<polygon fill="none" stroke="black" points="478.98,-135.6 478.98,-166.4 710.86,-166.4 710.86,-135.6 478.98,-135.6"/>
<text text-anchor="start" x="485.98" y="-147.8" font-family="Arial" font-size="14.00">mail_address </text>
<text text-anchor="start" x="573.13" y="-147.8" font-family="Arial" font-size="14.00" fill="#666666">[varchar(256)]</text>
<polygon fill="none" stroke="black" points="478.98,-104.8 478.98,-135.6 710.86,-135.6 710.86,-104.8 478.98,-104.8"/>
<text text-anchor="start" x="485.98" y="-117" font-family="Arial" font-size="14.00">icon_image_id </text>
<text text-anchor="start" x="580.15" y="-117" font-family="Arial" font-size="14.00" fill="#666666">[char(26)]</text>
<polygon fill="none" stroke="black" points="478.98,-74 478.98,-104.8 710.86,-104.8 710.86,-74 478.98,-74"/>
<text text-anchor="start" x="485.98" y="-86.2" font-family="Arial" font-size="14.00">created_at </text>
<text text-anchor="start" x="556.03" y="-86.2" font-family="Arial" font-size="14.00" fill="#666666">[bigint unsigned]</text>
<polygon fill="none" stroke="black" points="478.98,-43.2 478.98,-74 710.86,-74 710.86,-43.2 478.98,-43.2"/>
<text text-anchor="start" x="485.98" y="-55.4" font-family="Arial" font-size="14.00">updated_at </text>
<text text-anchor="start" x="559.94" y="-55.4" font-family="Arial" font-size="14.00" fill="#666666">[bigint unsigned]</text>
</g>
<!-- timeline_users&#45;&gt;users -->
<g id="edge2" class="edge">
<title>timeline_users:user_id&#45;&gt;users:user_id</title>
<path fill="none" stroke="black" d="M566.03,-557.3C606.69,-547.72 582.01,-478.13 554.65,-435.2 534.63,-403.79 499.04,-430.58 478.98,-399.2 456.43,-363.92 436.11,-305 477.98,-305"/>
<polygon fill="black" stroke="black" points="565.93,-557.31 555.51,-553.89 560.62,-557.87 556.32,-558.33 556.32,-558.33 556.32,-558.33 560.62,-557.87 556.46,-562.84 565.93,-557.31"/>
<text text-anchor="start" x="562.65" y="-568.4" font-family="Arial" font-size="10.00">FOREIGN KEY (user_id) REFERENCES users (user_id)</text>
</g>
</g>
</svg>
