<?xml version="1.0" encoding="UTF-8" standalone="no"?>
<!DOCTYPE svg PUBLIC "-//W3C//DTD SVG 1.1//EN"
 "http://www.w3.org/Graphics/SVG/1.1/DTD/svg11.dtd">
<!-- Generated by graphviz version 12.1.2 (20240928.0832)
 -->
<!-- Title: user_auth_credentials Pages: 1 -->
<svg width="616pt" height="694pt"
 viewBox="0.00 0.00 615.80 694.40" xmlns="http://www.w3.org/2000/svg" xmlns:xlink="http://www.w3.org/1999/xlink">
<g id="graph0" class="graph" transform="scale(1 1) rotate(0) translate(4 690.4)">
<title>user_auth_credentials</title>
<polygon fill="white" stroke="none" points="-4,4 -4,-690.4 611.8,-690.4 611.8,4 -4,4"/>
<!-- user_auth_credentials -->
<g id="node1" class="node">
<title>user_auth_credentials</title>
<polygon fill="#efefef" stroke="none" points="46.2,-604.6 46.2,-640.2 341.63,-640.2 341.63,-604.6 46.2,-604.6"/>
<polygon fill="none" stroke="black" points="46.2,-604.6 46.2,-640.2 341.63,-640.2 341.63,-604.6 46.2,-604.6"/>
<text text-anchor="start" x="53.2" y="-618" font-family="Arial Bold" font-size="18.00">user_auth_credentials</text>
<text text-anchor="start" x="210.14" y="-618" font-family="Arial" font-size="14.00">    </text>
<text text-anchor="start" x="241.25" y="-618" font-family="Arial" font-size="14.00" fill="#666666">[BASE TABLE]</text>
<polygon fill="none" stroke="black" points="46.2,-573.8 46.2,-604.6 341.63,-604.6 341.63,-573.8 46.2,-573.8"/>
<text text-anchor="start" x="53.2" y="-586" font-family="Arial" font-size="14.00">user_id </text>
<text text-anchor="start" x="103.01" y="-586" font-family="Arial" font-size="14.00" fill="#666666">[char(26)]</text>
<polygon fill="none" stroke="black" points="46.2,-543 46.2,-573.8 341.63,-573.8 341.63,-543 46.2,-543"/>
<text text-anchor="start" x="53.2" y="-555.2" font-family="Arial" font-size="14.00">encrypted_password </text>
<text text-anchor="start" x="186.28" y="-555.2" font-family="Arial" font-size="14.00" fill="#666666">[varchar(64)]</text>
<polygon fill="none" stroke="black" points="46.2,-512.2 46.2,-543 341.63,-543 341.63,-512.2 46.2,-512.2"/>
<text text-anchor="start" x="53.2" y="-524.4" font-family="Arial" font-size="14.00">created_at </text>
<text text-anchor="start" x="123.25" y="-524.4" font-family="Arial" font-size="14.00" fill="#666666">[bigint unsigned]</text>
<polygon fill="none" stroke="black" points="46.2,-481.4 46.2,-512.2 341.63,-512.2 341.63,-481.4 46.2,-481.4"/>
<text text-anchor="start" x="53.2" y="-493.6" font-family="Arial" font-size="14.00">updated_at </text>
<text text-anchor="start" x="127.16" y="-493.6" font-family="Arial" font-size="14.00" fill="#666666">[bigint unsigned]</text>
<polygon fill="none" stroke="black" stroke-width="3" points="44.7,-479.9 44.7,-641.7 343.13,-641.7 343.13,-479.9 44.7,-479.9"/>
</g>
<!-- users -->
<g id="node2" class="node">
<title>users</title>
<polygon fill="#efefef" stroke="none" points="77.97,-320.4 77.97,-356 309.85,-356 309.85,-320.4 77.97,-320.4"/>
<polygon fill="none" stroke="black" points="77.97,-320.4 77.97,-356 309.85,-356 309.85,-320.4 77.97,-320.4"/>
<text text-anchor="start" x="113.17" y="-333.8" font-family="Arial Bold" font-size="18.00">users</text>
<text text-anchor="start" x="150.17" y="-333.8" font-family="Arial" font-size="14.00">    </text>
<text text-anchor="start" x="181.28" y="-333.8" font-family="Arial" font-size="14.00" fill="#666666">[BASE TABLE]</text>
<polygon fill="none" stroke="black" points="77.97,-289.6 77.97,-320.4 309.85,-320.4 309.85,-289.6 77.97,-289.6"/>
<text text-anchor="start" x="84.97" y="-301.8" font-family="Arial" font-size="14.00">user_id </text>
<text text-anchor="start" x="134.78" y="-301.8" font-family="Arial" font-size="14.00" fill="#666666">[char(26)]</text>
<polygon fill="none" stroke="black" points="77.97,-258.8 77.97,-289.6 309.85,-289.6 309.85,-258.8 77.97,-258.8"/>
<text text-anchor="start" x="84.97" y="-271" font-family="Arial" font-size="14.00">preferred_user_id </text>
<text text-anchor="start" x="199.37" y="-271" font-family="Arial" font-size="14.00" fill="#666666">[varchar(64)]</text>
<polygon fill="none" stroke="black" points="77.97,-228 77.97,-258.8 309.85,-258.8 309.85,-228 77.97,-228"/>
<text text-anchor="start" x="84.97" y="-240.2" font-family="Arial" font-size="14.00">preferred_user_name </text>
<text text-anchor="start" x="223.5" y="-240.2" font-family="Arial" font-size="14.00" fill="#666666">[varchar(64)]</text>
<polygon fill="none" stroke="black" points="77.97,-197.2 77.97,-228 309.85,-228 309.85,-197.2 77.97,-197.2"/>
<text text-anchor="start" x="84.97" y="-209.4" font-family="Arial" font-size="14.00">registered_at </text>
<text text-anchor="start" x="170.58" y="-209.4" font-family="Arial" font-size="14.00" fill="#666666">[bigint unsigned]</text>
<polygon fill="none" stroke="black" points="77.97,-166.4 77.97,-197.2 309.85,-197.2 309.85,-166.4 77.97,-166.4"/>
<text text-anchor="start" x="84.97" y="-178.6" font-family="Arial" font-size="14.00">is_public </text>
<text text-anchor="start" x="143.34" y="-178.6" font-family="Arial" font-size="14.00" fill="#666666">[tinyint(1)]</text>
<polygon fill="none" stroke="black" points="77.97,-135.6 77.97,-166.4 309.85,-166.4 309.85,-135.6 77.97,-135.6"/>
<text text-anchor="start" x="84.97" y="-147.8" font-family="Arial" font-size="14.00">mail_address </text>
<text text-anchor="start" x="172.12" y="-147.8" font-family="Arial" font-size="14.00" fill="#666666">[varchar(256)]</text>
<polygon fill="none" stroke="black" points="77.97,-104.8 77.97,-135.6 309.85,-135.6 309.85,-104.8 77.97,-104.8"/>
<text text-anchor="start" x="84.97" y="-117" font-family="Arial" font-size="14.00">icon_image_id </text>
<text text-anchor="start" x="179.14" y="-117" font-family="Arial" font-size="14.00" fill="#666666">[char(26)]</text>
<polygon fill="none" stroke="black" points="77.97,-74 77.97,-104.8 309.85,-104.8 309.85,-74 77.97,-74"/>
<text text-anchor="start" x="84.97" y="-86.2" font-family="Arial" font-size="14.00">created_at </text>
<text text-anchor="start" x="155.02" y="-86.2" font-family="Arial" font-size="14.00" fill="#666666">[bigint unsigned]</text>
<polygon fill="none" stroke="black" points="77.97,-43.2 77.97,-74 309.85,-74 309.85,-43.2 77.97,-43.2"/>
<text text-anchor="start" x="84.97" y="-55.4" font-family="Arial" font-size="14.00">updated_at </text>
<text text-anchor="start" x="158.93" y="-55.4" font-family="Arial" font-size="14.00" fill="#666666">[bigint unsigned]</text>
</g>
<!-- user_auth_credentials&#45;&gt;users -->
<g id="edge1" class="edge">
<title>user_auth_credentials:user_id&#45;&gt;users:user_id</title>
<path fill="none" stroke="black" d="M352.52,-586.57C402.47,-557.92 370.8,-305 310.85,-305"/>
<polygon fill="black" stroke="black" points="352.61,-586.54 341.79,-584.77 347.46,-587.91 343.27,-589.03 343.27,-589.03 343.27,-589.03 347.46,-587.91 344.11,-593.46 352.61,-586.54"/>
<text text-anchor="start" x="349.63" y="-599.2" font-family="Arial" font-size="10.00">FOREIGN KEY (user_id) REFERENCES users (user_id)</text>
</g>
</g>
</svg>
