<?xml version="1.0" encoding="UTF-8" standalone="no"?>
<!DOCTYPE svg PUBLIC "-//W3C//DTD SVG 1.1//EN"
 "http://www.w3.org/Graphics/SVG/1.1/DTD/svg11.dtd">
<!-- Generated by graphviz version 12.1.2 (20240928.0832)
 -->
<!-- Title: user_relations Pages: 1 -->
<svg width="600pt" height="694pt"
 viewBox="0.00 0.00 599.85 694.40" xmlns="http://www.w3.org/2000/svg" xmlns:xlink="http://www.w3.org/1999/xlink">
<g id="graph0" class="graph" transform="scale(1 1) rotate(0) translate(4 690.4)">
<title>user_relations</title>
<polygon fill="white" stroke="none" points="-4,4 -4,-690.4 595.85,-690.4 595.85,4 -4,4"/>
<!-- user_relations -->
<g id="node1" class="node">
<title>user_relations</title>
<polygon fill="#efefef" stroke="none" points="46.2,-604.6 46.2,-640.2 285.66,-640.2 285.66,-604.6 46.2,-604.6"/>
<polygon fill="none" stroke="black" points="46.2,-604.6 46.2,-640.2 285.66,-640.2 285.66,-604.6 46.2,-604.6"/>
<text text-anchor="start" x="53.2" y="-618" font-family="Arial Bold" font-size="18.00">user_relations</text>
<text text-anchor="start" x="154.17" y="-618" font-family="Arial" font-size="14.00">    </text>
<text text-anchor="start" x="185.29" y="-618" font-family="Arial" font-size="14.00" fill="#666666">[BASE TABLE]</text>
<polygon fill="none" stroke="black" points="46.2,-573.8 46.2,-604.6 285.66,-604.6 285.66,-573.8 46.2,-573.8"/>
<text text-anchor="start" x="53.2" y="-586" font-family="Arial" font-size="14.00">follow_user_id </text>
<text text-anchor="start" x="146.59" y="-586" font-family="Arial" font-size="14.00" fill="#666666">[char(26)]</text>
<polygon fill="none" stroke="black" points="46.2,-543 46.2,-573.8 285.66,-573.8 285.66,-543 46.2,-543"/>
<text text-anchor="start" x="53.2" y="-555.2" font-family="Arial" font-size="14.00">follower_user_id </text>
<text text-anchor="start" x="159.03" y="-555.2" font-family="Arial" font-size="14.00" fill="#666666">[char(26)]</text>
<polygon fill="none" stroke="black" points="46.2,-512.2 46.2,-543 285.66,-543 285.66,-512.2 46.2,-512.2"/>
<text text-anchor="start" x="53.2" y="-524.4" font-family="Arial" font-size="14.00">created_at </text>
<text text-anchor="start" x="123.25" y="-524.4" font-family="Arial" font-size="14.00" fill="#666666">[bigint unsigned]</text>
<polygon fill="none" stroke="black" points="46.2,-481.4 46.2,-512.2 285.66,-512.2 285.66,-481.4 46.2,-481.4"/>
<text text-anchor="start" x="53.2" y="-493.6" font-family="Arial" font-size="14.00">updated_at </text>
<text text-anchor="start" x="127.16" y="-493.6" font-family="Arial" font-size="14.00" fill="#666666">[bigint unsigned]</text>
<polygon fill="none" stroke="black" stroke-width="3" points="44.7,-479.9 44.7,-641.7 287.16,-641.7 287.16,-479.9 44.7,-479.9"/>
</g>
<!-- users -->
<g id="node2" class="node">
<title>users</title>
<polygon fill="#efefef" stroke="none" points="49.99,-320.4 49.99,-356 281.87,-356 281.87,-320.4 49.99,-320.4"/>
<polygon fill="none" stroke="black" points="49.99,-320.4 49.99,-356 281.87,-356 281.87,-320.4 49.99,-320.4"/>
<text text-anchor="start" x="85.19" y="-333.8" font-family="Arial Bold" font-size="18.00">users</text>
<text text-anchor="start" x="122.18" y="-333.8" font-family="Arial" font-size="14.00">    </text>
<text text-anchor="start" x="153.3" y="-333.8" font-family="Arial" font-size="14.00" fill="#666666">[BASE TABLE]</text>
<polygon fill="none" stroke="black" points="49.99,-289.6 49.99,-320.4 281.87,-320.4 281.87,-289.6 49.99,-289.6"/>
<text text-anchor="start" x="56.99" y="-301.8" font-family="Arial" font-size="14.00">user_id </text>
<text text-anchor="start" x="106.79" y="-301.8" font-family="Arial" font-size="14.00" fill="#666666">[char(26)]</text>
<polygon fill="none" stroke="black" points="49.99,-258.8 49.99,-289.6 281.87,-289.6 281.87,-258.8 49.99,-258.8"/>
<text text-anchor="start" x="56.99" y="-271" font-family="Arial" font-size="14.00">preferred_user_id </text>
<text text-anchor="start" x="171.39" y="-271" font-family="Arial" font-size="14.00" fill="#666666">[varchar(64)]</text>
<polygon fill="none" stroke="black" points="49.99,-228 49.99,-258.8 281.87,-258.8 281.87,-228 49.99,-228"/>
<text text-anchor="start" x="56.99" y="-240.2" font-family="Arial" font-size="14.00">preferred_user_name </text>
<text text-anchor="start" x="195.51" y="-240.2" font-family="Arial" font-size="14.00" fill="#666666">[varchar(64)]</text>
<polygon fill="none" stroke="black" points="49.99,-197.2 49.99,-228 281.87,-228 281.87,-197.2 49.99,-197.2"/>
<text text-anchor="start" x="56.99" y="-209.4" font-family="Arial" font-size="14.00">registered_at </text>
<text text-anchor="start" x="142.59" y="-209.4" font-family="Arial" font-size="14.00" fill="#666666">[bigint unsigned]</text>
<polygon fill="none" stroke="black" points="49.99,-166.4 49.99,-197.2 281.87,-197.2 281.87,-166.4 49.99,-166.4"/>
<text text-anchor="start" x="56.99" y="-178.6" font-family="Arial" font-size="14.00">is_public </text>
<text text-anchor="start" x="115.35" y="-178.6" font-family="Arial" font-size="14.00" fill="#666666">[tinyint(1)]</text>
<polygon fill="none" stroke="black" points="49.99,-135.6 49.99,-166.4 281.87,-166.4 281.87,-135.6 49.99,-135.6"/>
<text text-anchor="start" x="56.99" y="-147.8" font-family="Arial" font-size="14.00">mail_address </text>
<text text-anchor="start" x="144.14" y="-147.8" font-family="Arial" font-size="14.00" fill="#666666">[varchar(256)]</text>
<polygon fill="none" stroke="black" points="49.99,-104.8 49.99,-135.6 281.87,-135.6 281.87,-104.8 49.99,-104.8"/>
<text text-anchor="start" x="56.99" y="-117" font-family="Arial" font-size="14.00">icon_image_id </text>
<text text-anchor="start" x="151.16" y="-117" font-family="Arial" font-size="14.00" fill="#666666">[char(26)]</text>
<polygon fill="none" stroke="black" points="49.99,-74 49.99,-104.8 281.87,-104.8 281.87,-74 49.99,-74"/>
<text text-anchor="start" x="56.99" y="-86.2" font-family="Arial" font-size="14.00">created_at </text>
<text text-anchor="start" x="127.04" y="-86.2" font-family="Arial" font-size="14.00" fill="#666666">[bigint unsigned]</text>
<polygon fill="none" stroke="black" points="49.99,-43.2 49.99,-74 281.87,-74 281.87,-43.2 49.99,-43.2"/>
<text text-anchor="start" x="56.99" y="-55.4" font-family="Arial" font-size="14.00">updated_at </text>
<text text-anchor="start" x="130.95" y="-55.4" font-family="Arial" font-size="14.00" fill="#666666">[bigint unsigned]</text>
</g>
<!-- user_relations&#45;&gt;users -->
<g id="edge1" class="edge">
<title>user_relations:follow_user_id&#45;&gt;users:user_id</title>
<path fill="none" stroke="black" d="M296.75,-586.57C349.2,-557.92 342.45,-305 282.87,-305"/>
<polygon fill="black" stroke="black" points="296.66,-586.59 285.85,-584.76 291.5,-587.94 287.31,-589.03 287.31,-589.03 287.31,-589.03 291.5,-587.94 288.12,-593.47 296.66,-586.59"/>
<text text-anchor="start" x="293.66" y="-599.2" font-family="Arial" font-size="10.00">FOREIGN KEY (follow_user_id) REFERENCES users (user_id)</text>
</g>
<!-- user_relations&#45;&gt;users -->
<g id="edge2" class="edge">
<title>user_relations:follower_user_id&#45;&gt;users:user_id</title>
<path fill="none" stroke="black" d="M296.52,-555.55C342.3,-527.71 335.67,-305 282.87,-305"/>
<polygon fill="black" stroke="black" points="296.59,-555.53 285.73,-553.98 291.46,-557.01 287.3,-558.21 287.3,-558.21 287.3,-558.21 291.46,-557.01 288.23,-562.63 296.59,-555.53"/>
<text text-anchor="start" x="293.66" y="-568.4" font-family="Arial" font-size="10.00">FOREIGN KEY (follower_user_id) REFERENCES users (user_id)</text>
</g>
</g>
</svg>
