<?xml version="1.0" encoding="UTF-8" standalone="no"?>
<!DOCTYPE svg PUBLIC "-//W3C//DTD SVG 1.1//EN"
 "http://www.w3.org/Graphics/SVG/1.1/DTD/svg11.dtd">
<!-- Generated by graphviz version 12.1.2 (20240928.0832)
 -->
<!-- Title: users Pages: 1 -->
<svg width="1737pt" height="756pt"
 viewBox="0.00 0.00 1736.67 756.00" xmlns="http://www.w3.org/2000/svg" xmlns:xlink="http://www.w3.org/1999/xlink">
<g id="graph0" class="graph" transform="scale(1 1) rotate(0) translate(4 752)">
<title>users</title>
<polygon fill="white" stroke="none" points="-4,4 -4,-752 1732.67,-752 1732.67,4 -4,4"/>
<!-- users -->
<g id="node1" class="node">
<title>users</title>
<polygon fill="#efefef" stroke="none" points="879.27,-323.4 879.27,-359 1111.15,-359 1111.15,-323.4 879.27,-323.4"/>
<polygon fill="none" stroke="black" points="879.27,-323.4 879.27,-359 1111.15,-359 1111.15,-323.4 879.27,-323.4"/>
<text text-anchor="start" x="914.47" y="-336.8" font-family="Arial Bold" font-size="18.00">users</text>
<text text-anchor="start" x="951.46" y="-336.8" font-family="Arial" font-size="14.00">    </text>
<text text-anchor="start" x="982.58" y="-336.8" font-family="Arial" font-size="14.00" fill="#666666">[BASE TABLE]</text>
<polygon fill="none" stroke="black" points="879.27,-292.6 879.27,-323.4 1111.15,-323.4 1111.15,-292.6 879.27,-292.6"/>
<text text-anchor="start" x="886.27" y="-304.8" font-family="Arial" font-size="14.00">user_id </text>
<text text-anchor="start" x="936.08" y="-304.8" font-family="Arial" font-size="14.00" fill="#666666">[char(26)]</text>
<polygon fill="none" stroke="black" points="879.27,-261.8 879.27,-292.6 1111.15,-292.6 1111.15,-261.8 879.27,-261.8"/>
<text text-anchor="start" x="886.27" y="-274" font-family="Arial" font-size="14.00">preferred_user_id </text>
<text text-anchor="start" x="1000.67" y="-274" font-family="Arial" font-size="14.00" fill="#666666">[varchar(64)]</text>
<polygon fill="none" stroke="black" points="879.27,-231 879.27,-261.8 1111.15,-261.8 1111.15,-231 879.27,-231"/>
<text text-anchor="start" x="886.27" y="-243.2" font-family="Arial" font-size="14.00">preferred_user_name </text>
<text text-anchor="start" x="1024.79" y="-243.2" font-family="Arial" font-size="14.00" fill="#666666">[varchar(64)]</text>
<polygon fill="none" stroke="black" points="879.27,-200.2 879.27,-231 1111.15,-231 1111.15,-200.2 879.27,-200.2"/>
<text text-anchor="start" x="886.27" y="-212.4" font-family="Arial" font-size="14.00">registered_at </text>
<text text-anchor="start" x="971.88" y="-212.4" font-family="Arial" font-size="14.00" fill="#666666">[bigint unsigned]</text>
<polygon fill="none" stroke="black" points="879.27,-169.4 879.27,-200.2 1111.15,-200.2 1111.15,-169.4 879.27,-169.4"/>
<text text-anchor="start" x="886.27" y="-181.6" font-family="Arial" font-size="14.00">is_public </text>
<text text-anchor="start" x="944.63" y="-181.6" font-family="Arial" font-size="14.00" fill="#666666">[tinyint(1)]</text>
<polygon fill="none" stroke="black" points="879.27,-138.6 879.27,-169.4 1111.15,-169.4 1111.15,-138.6 879.27,-138.6"/>
<text text-anchor="start" x="886.27" y="-150.8" font-family="Arial" font-size="14.00">mail_address </text>
<text text-anchor="start" x="973.42" y="-150.8" font-family="Arial" font-size="14.00" fill="#666666">[varchar(256)]</text>
<polygon fill="none" stroke="black" points="879.27,-107.8 879.27,-138.6 1111.15,-138.6 1111.15,-107.8 879.27,-107.8"/>
<text text-anchor="start" x="886.27" y="-120" font-family="Arial" font-size="14.00">icon_image_id </text>
<text text-anchor="start" x="980.44" y="-120" font-family="Arial" font-size="14.00" fill="#666666">[char(26)]</text>
<polygon fill="none" stroke="black" points="879.27,-77 879.27,-107.8 1111.15,-107.8 1111.15,-77 879.27,-77"/>
<text text-anchor="start" x="886.27" y="-89.2" font-family="Arial" font-size="14.00">created_at </text>
<text text-anchor="start" x="956.32" y="-89.2" font-family="Arial" font-size="14.00" fill="#666666">[bigint unsigned]</text>
<polygon fill="none" stroke="black" points="879.27,-46.2 879.27,-77 1111.15,-77 1111.15,-46.2 879.27,-46.2"/>
<text text-anchor="start" x="886.27" y="-58.4" font-family="Arial" font-size="14.00">updated_at </text>
<text text-anchor="start" x="960.23" y="-58.4" font-family="Arial" font-size="14.00" fill="#666666">[bigint unsigned]</text>
<polygon fill="none" stroke="black" stroke-width="3" points="877.77,-44.7 877.77,-360.5 1112.65,-360.5 1112.65,-44.7 877.77,-44.7"/>
</g>
<!-- plats -->
<g id="node2" class="node">
<title>plats</title>
<polygon fill="#efefef" stroke="none" points="74.25,-653.8 74.25,-689.4 264.17,-689.4 264.17,-653.8 74.25,-653.8"/>
<polygon fill="none" stroke="black" points="74.25,-653.8 74.25,-689.4 264.17,-689.4 264.17,-653.8 74.25,-653.8"/>
<text text-anchor="start" x="89.97" y="-667.2" font-family="Arial Bold" font-size="18.00">plats</text>
<text text-anchor="start" x="123.96" y="-667.2" font-family="Arial" font-size="14.00">    </text>
<text text-anchor="start" x="155.08" y="-667.2" font-family="Arial" font-size="14.00" fill="#666666">[BASE TABLE]</text>
<polygon fill="none" stroke="black" points="74.25,-623 74.25,-653.8 264.17,-653.8 264.17,-623 74.25,-623"/>
<text text-anchor="start" x="81.25" y="-635.2" font-family="Arial" font-size="14.00">plat_id </text>
<text text-anchor="start" x="126.39" y="-635.2" font-family="Arial" font-size="14.00" fill="#666666">[char(26)]</text>
<polygon fill="none" stroke="black" points="74.25,-592.2 74.25,-623 264.17,-623 264.17,-592.2 74.25,-592.2"/>
<text text-anchor="start" x="81.25" y="-604.4" font-family="Arial" font-size="14.00">user_id </text>
<text text-anchor="start" x="131.06" y="-604.4" font-family="Arial" font-size="14.00" fill="#666666">[char(26)]</text>
<polygon fill="none" stroke="black" points="74.25,-561.4 74.25,-592.2 264.17,-592.2 264.17,-561.4 74.25,-561.4"/>
<text text-anchor="start" x="81.25" y="-573.6" font-family="Arial" font-size="14.00">content </text>
<text text-anchor="start" x="131.06" y="-573.6" font-family="Arial" font-size="14.00" fill="#666666">[varchar(255)]</text>
<polygon fill="none" stroke="black" points="74.25,-530.6 74.25,-561.4 264.17,-561.4 264.17,-530.6 74.25,-530.6"/>
<text text-anchor="start" x="81.25" y="-542.8" font-family="Arial" font-size="14.00">created_at </text>
<text text-anchor="start" x="151.3" y="-542.8" font-family="Arial" font-size="14.00" fill="#666666">[bigint unsigned]</text>
<polygon fill="none" stroke="black" points="74.25,-499.8 74.25,-530.6 264.17,-530.6 264.17,-499.8 74.25,-499.8"/>
<text text-anchor="start" x="81.25" y="-512" font-family="Arial" font-size="14.00">updated_at </text>
<text text-anchor="start" x="155.21" y="-512" font-family="Arial" font-size="14.00" fill="#666666">[bigint unsigned]</text>
</g>
<!-- plats&#45;&gt;users -->
<g id="edge1" class="edge">
<title>plats:user_id&#45;&gt;users:user_id</title>
<path fill="none" stroke="black" d="M275.39,-606.81C334.78,-596.66 262.52,-491.51 316.21,-441.2 409.87,-353.43 749.91,-308 878.27,-308"/>
<polygon fill="black" stroke="black" points="275.48,-606.8 265.16,-603.09 270.16,-607.21 265.84,-607.55 265.84,-607.55 265.84,-607.55 270.16,-607.21 265.85,-612.06 275.48,-606.8"/>
<text text-anchor="start" x="7" y="-617.6" font-family="Arial" font-size="10.00">FOREIGN KEY (user_id) REFERENCES users (user_id)</text>
</g>
<!-- timeline_users -->
<g id="node3" class="node">
<title>timeline_users</title>
<polygon fill="#efefef" stroke="none" points="368.48,-638.4 368.48,-674 611.94,-674 611.94,-638.4 368.48,-638.4"/>
<polygon fill="none" stroke="black" points="368.48,-638.4 368.48,-674 611.94,-674 611.94,-638.4 368.48,-638.4"/>
<text text-anchor="start" x="375.48" y="-651.8" font-family="Arial Bold" font-size="18.00">timeline_users</text>
<text text-anchor="start" x="480.45" y="-651.8" font-family="Arial" font-size="14.00">    </text>
<text text-anchor="start" x="511.57" y="-651.8" font-family="Arial" font-size="14.00" fill="#666666">[BASE TABLE]</text>
<polygon fill="none" stroke="black" points="368.48,-607.6 368.48,-638.4 611.94,-638.4 611.94,-607.6 368.48,-607.6"/>
<text text-anchor="start" x="375.48" y="-619.8" font-family="Arial" font-size="14.00">timeline_id </text>
<text text-anchor="start" x="446.29" y="-619.8" font-family="Arial" font-size="14.00" fill="#666666">[char(26)]</text>
<polygon fill="none" stroke="black" points="368.48,-576.8 368.48,-607.6 611.94,-607.6 611.94,-576.8 368.48,-576.8"/>
<text text-anchor="start" x="375.48" y="-589" font-family="Arial" font-size="14.00">user_id </text>
<text text-anchor="start" x="425.28" y="-589" font-family="Arial" font-size="14.00" fill="#666666">[char(26)]</text>
<polygon fill="none" stroke="black" points="368.48,-546 368.48,-576.8 611.94,-576.8 611.94,-546 368.48,-546"/>
<text text-anchor="start" x="375.48" y="-558.2" font-family="Arial" font-size="14.00">created_at </text>
<text text-anchor="start" x="445.53" y="-558.2" font-family="Arial" font-size="14.00" fill="#666666">[bigint unsigned]</text>
<polygon fill="none" stroke="black" points="368.48,-515.2 368.48,-546 611.94,-546 611.94,-515.2 368.48,-515.2"/>
<text text-anchor="start" x="375.48" y="-527.4" font-family="Arial" font-size="14.00">updated_at </text>
<text text-anchor="start" x="449.44" y="-527.4" font-family="Arial" font-size="14.00" fill="#666666">[bigint unsigned]</text>
</g>
<!-- timeline_users&#45;&gt;users -->
<g id="edge2" class="edge">
<title>timeline_users:user_id&#45;&gt;users:user_id</title>
<path fill="none" stroke="black" d="M623.07,-591.42C677.4,-582.24 622.48,-493.79 664.21,-441.2 733.86,-353.42 766.22,-308 878.27,-308"/>
<polygon fill="black" stroke="black" points="623.25,-591.41 612.93,-587.69 617.93,-591.82 613.61,-592.15 613.61,-592.15 613.61,-592.15 617.93,-591.82 613.62,-596.66 623.25,-591.41"/>
<text text-anchor="start" x="487.36" y="-576.2" font-family="Arial" font-size="10.00">FOREIGN KEY (user_id) REFERENCES users (user_id)</text>
</g>
<!-- timelines -->
<g id="node4" class="node">
<title>timelines</title>
<polygon fill="#efefef" stroke="none" points="715.97,-669.2 715.97,-704.8 920.45,-704.8 920.45,-669.2 715.97,-669.2"/>
<polygon fill="none" stroke="black" points="715.97,-669.2 715.97,-704.8 920.45,-704.8 920.45,-669.2 715.97,-669.2"/>
<text text-anchor="start" x="722.97" y="-682.6" font-family="Arial Bold" font-size="18.00">timelines</text>
<text text-anchor="start" x="788.96" y="-682.6" font-family="Arial" font-size="14.00">    </text>
<text text-anchor="start" x="820.08" y="-682.6" font-family="Arial" font-size="14.00" fill="#666666">[BASE TABLE]</text>
<polygon fill="none" stroke="black" points="715.97,-638.4 715.97,-669.2 920.45,-669.2 920.45,-638.4 715.97,-638.4"/>
<text text-anchor="start" x="722.97" y="-650.6" font-family="Arial" font-size="14.00">timeline_id </text>
<text text-anchor="start" x="793.79" y="-650.6" font-family="Arial" font-size="14.00" fill="#666666">[char(26)]</text>
<polygon fill="none" stroke="black" points="715.97,-607.6 715.97,-638.4 920.45,-638.4 920.45,-607.6 715.97,-607.6"/>
<text text-anchor="start" x="722.97" y="-619.8" font-family="Arial" font-size="14.00">user_id </text>
<text text-anchor="start" x="772.78" y="-619.8" font-family="Arial" font-size="14.00" fill="#666666">[char(26)]</text>
<polygon fill="none" stroke="black" points="715.97,-576.8 715.97,-607.6 920.45,-607.6 920.45,-576.8 715.97,-576.8"/>
<text text-anchor="start" x="722.97" y="-589" font-family="Arial" font-size="14.00">name </text>
<text text-anchor="start" x="761.88" y="-589" font-family="Arial" font-size="14.00" fill="#666666">[varchar(64)]</text>
<polygon fill="none" stroke="black" points="715.97,-546 715.97,-576.8 920.45,-576.8 920.45,-546 715.97,-546"/>
<text text-anchor="start" x="722.97" y="-558.2" font-family="Arial" font-size="14.00">description </text>
<text text-anchor="start" x="794.56" y="-558.2" font-family="Arial" font-size="14.00" fill="#666666">[varchar(255)]</text>
<polygon fill="none" stroke="black" points="715.97,-515.2 715.97,-546 920.45,-546 920.45,-515.2 715.97,-515.2"/>
<text text-anchor="start" x="722.97" y="-527.4" font-family="Arial" font-size="14.00">created_at </text>
<text text-anchor="start" x="793.02" y="-527.4" font-family="Arial" font-size="14.00" fill="#666666">[bigint unsigned]</text>
<polygon fill="none" stroke="black" points="715.97,-484.4 715.97,-515.2 920.45,-515.2 920.45,-484.4 715.97,-484.4"/>
<text text-anchor="start" x="722.97" y="-496.6" font-family="Arial" font-size="14.00">updated_at </text>
<text text-anchor="start" x="796.93" y="-496.6" font-family="Arial" font-size="14.00" fill="#666666">[bigint unsigned]</text>
</g>
<!-- timelines&#45;&gt;users -->
<g id="edge3" class="edge">
<title>timelines:user_id&#45;&gt;users:user_id</title>
<path fill="none" stroke="black" d="M931.57,-622.36C997.95,-613.34 952.55,-511.38 920.45,-441.2 910.34,-419.09 889.43,-427.28 879.27,-405.2 861.21,-365.95 835.07,-308 878.27,-308"/>
<polygon fill="black" stroke="black" points="931.76,-622.34 921.5,-618.49 926.44,-622.68 922.12,-622.96 922.12,-622.96 922.12,-622.96 926.44,-622.68 922.07,-627.47 931.76,-622.34"/>
<text text-anchor="start" x="928.45" y="-633" font-family="Arial" font-size="10.00">FOREIGN KEY (user_id) REFERENCES users (user_id)</text>
</g>
<!-- user_auth_credentials -->
<g id="node5" class="node">
<title>user_auth_credentials</title>
<polygon fill="#efefef" stroke="none" points="1024.5,-638.4 1024.5,-674 1319.92,-674 1319.92,-638.4 1024.5,-638.4"/>
<polygon fill="none" stroke="black" points="1024.5,-638.4 1024.5,-674 1319.92,-674 1319.92,-638.4 1024.5,-638.4"/>
<text text-anchor="start" x="1031.5" y="-651.8" font-family="Arial Bold" font-size="18.00">user_auth_credentials</text>
<text text-anchor="start" x="1188.43" y="-651.8" font-family="Arial" font-size="14.00">    </text>
<text text-anchor="start" x="1219.55" y="-651.8" font-family="Arial" font-size="14.00" fill="#666666">[BASE TABLE]</text>
<polygon fill="none" stroke="black" points="1024.5,-607.6 1024.5,-638.4 1319.92,-638.4 1319.92,-607.6 1024.5,-607.6"/>
<text text-anchor="start" x="1031.5" y="-619.8" font-family="Arial" font-size="14.00">user_id </text>
<text text-anchor="start" x="1081.3" y="-619.8" font-family="Arial" font-size="14.00" fill="#666666">[char(26)]</text>
<polygon fill="none" stroke="black" points="1024.5,-576.8 1024.5,-607.6 1319.92,-607.6 1319.92,-576.8 1024.5,-576.8"/>
<text text-anchor="start" x="1031.5" y="-589" font-family="Arial" font-size="14.00">encrypted_password </text>
<text text-anchor="start" x="1164.57" y="-589" font-family="Arial" font-size="14.00" fill="#666666">[varchar(64)]</text>
<polygon fill="none" stroke="black" points="1024.5,-546 1024.5,-576.8 1319.92,-576.8 1319.92,-546 1024.5,-546"/>
<text text-anchor="start" x="1031.5" y="-558.2" font-family="Arial" font-size="14.00">created_at </text>
<text text-anchor="start" x="1101.54" y="-558.2" font-family="Arial" font-size="14.00" fill="#666666">[bigint unsigned]</text>
<polygon fill="none" stroke="black" points="1024.5,-515.2 1024.5,-546 1319.92,-546 1319.92,-515.2 1024.5,-515.2"/>
<text text-anchor="start" x="1031.5" y="-527.4" font-family="Arial" font-size="14.00">updated_at </text>
<text text-anchor="start" x="1105.46" y="-527.4" font-family="Arial" font-size="14.00" fill="#666666">[bigint unsigned]</text>
</g>
<!-- user_auth_credentials&#45;&gt;users -->
<g id="edge4" class="edge">
<title>user_auth_credentials:user_id&#45;&gt;users:user_id</title>
<path fill="none" stroke="black" d="M1013.41,-622.2C960.55,-613.15 996.31,-528.84 1024.5,-472 1046.1,-428.43 1089.47,-448.73 1111.15,-405.2 1130.42,-366.53 1155.35,-308 1112.15,-308"/>
<polygon fill="black" stroke="black" points="1013.19,-622.19 1022.81,-627.46 1018.51,-622.61 1022.83,-622.95 1022.83,-622.95 1022.83,-622.95 1018.51,-622.61 1023.52,-618.49 1013.19,-622.19"/>
<text text-anchor="start" x="1030.5" y="-607" font-family="Arial" font-size="10.00">FOREIGN KEY (user_id) REFERENCES users (user_id)</text>
</g>
<!-- user_relations -->
<g id="node6" class="node">
<title>user_relations</title>
<polygon fill="#efefef" stroke="none" points="1424.48,-638.4 1424.48,-674 1663.94,-674 1663.94,-638.4 1424.48,-638.4"/>
<polygon fill="none" stroke="black" points="1424.48,-638.4 1424.48,-674 1663.94,-674 1663.94,-638.4 1424.48,-638.4"/>
<text text-anchor="start" x="1431.48" y="-651.8" font-family="Arial Bold" font-size="18.00">user_relations</text>
<text text-anchor="start" x="1532.45" y="-651.8" font-family="Arial" font-size="14.00">    </text>
<text text-anchor="start" x="1563.57" y="-651.8" font-family="Arial" font-size="14.00" fill="#666666">[BASE TABLE]</text>
<polygon fill="none" stroke="black" points="1424.48,-607.6 1424.48,-638.4 1663.94,-638.4 1663.94,-607.6 1424.48,-607.6"/>
<text text-anchor="start" x="1431.48" y="-619.8" font-family="Arial" font-size="14.00">follow_user_id </text>
<text text-anchor="start" x="1524.87" y="-619.8" font-family="Arial" font-size="14.00" fill="#666666">[char(26)]</text>
<polygon fill="none" stroke="black" points="1424.48,-576.8 1424.48,-607.6 1663.94,-607.6 1663.94,-576.8 1424.48,-576.8"/>
<text text-anchor="start" x="1431.48" y="-589" font-family="Arial" font-size="14.00">follower_user_id </text>
<text text-anchor="start" x="1537.32" y="-589" font-family="Arial" font-size="14.00" fill="#666666">[char(26)]</text>
<polygon fill="none" stroke="black" points="1424.48,-546 1424.48,-576.8 1663.94,-576.8 1663.94,-546 1424.48,-546"/>
<text text-anchor="start" x="1431.48" y="-558.2" font-family="Arial" font-size="14.00">created_at </text>
<text text-anchor="start" x="1501.53" y="-558.2" font-family="Arial" font-size="14.00" fill="#666666">[bigint unsigned]</text>
<polygon fill="none" stroke="black" points="1424.48,-515.2 1424.48,-546 1663.94,-546 1663.94,-515.2 1424.48,-515.2"/>
<text text-anchor="start" x="1431.48" y="-527.4" font-family="Arial" font-size="14.00">updated_at </text>
<text text-anchor="start" x="1505.44" y="-527.4" font-family="Arial" font-size="14.00" fill="#666666">[bigint unsigned]</text>
</g>
<!-- user_relations&#45;&gt;users -->
<g id="edge5" class="edge">
<title>user_relations:follow_user_id&#45;&gt;users:user_id</title>
<path fill="none" stroke="black" d="M1413.17,-622.31C1346.96,-612.61 1423.01,-503.23 1372.21,-441.2 1289.93,-340.73 1242.01,-308 1112.15,-308"/>
<polygon fill="black" stroke="black" points="1413.17,-622.31 1422.85,-627.47 1418.49,-622.67 1422.81,-622.96 1422.81,-622.96 1422.81,-622.96 1418.49,-622.67 1423.45,-618.49 1413.17,-622.31"/>
<text text-anchor="start" x="1430.48" y="-633" font-family="Arial" font-size="10.00">FOREIGN KEY (follow_user_id) REFERENCES users (user_id)</text>
</g>
<!-- user_relations&#45;&gt;users -->
<g id="edge6" class="edge">
<title>user_relations:follower_user_id&#45;&gt;users:user_id</title>
<path fill="none" stroke="black" d="M1413.37,-591.41C1359.25,-582.05 1416.09,-492.01 1372.21,-441.2 1287.33,-342.92 1242.01,-308 1112.15,-308"/>
<polygon fill="black" stroke="black" points="1413.18,-591.39 1422.8,-596.66 1418.5,-591.81 1422.81,-592.15 1422.81,-592.15 1422.81,-592.15 1418.5,-591.81 1423.5,-587.69 1413.18,-591.39"/>
<text text-anchor="start" x="1430.48" y="-602.2" font-family="Arial" font-size="10.00">FOREIGN KEY (follower_user_id) REFERENCES users (user_id)</text>
</g>
</g>
</svg>
